<svg xmlns="http://www.w3.org/2000/svg">
  <symbol id="chevron-left" viewBox="0 0 28 45" fill="none">
    <path d="M11.0417 22L25.7917 7.25001C26.5677 6.46933 27.0033 5.41328 27.0033 4.31251C27.0033 3.21174 26.5677 2.15569 25.7917 1.37501C25.4043 0.984475 24.9435 0.674498 24.4357 0.462962C23.928 0.251425 23.3834 0.142517 22.8333 0.142517C22.2833 0.142517 21.7387 0.251425 21.2309 0.462962C20.7232 0.674498 20.2623 0.984475 19.875 1.37501L2.20832 19.0417C1.81779 19.429 1.50781 19.8899 1.29628 20.3976C1.08474 20.9054 0.97583 21.45 0.97583 22C0.97583 22.5501 1.08474 23.0947 1.29628 23.6024C1.50781 24.1102 1.81779 24.571 2.20832 24.9583L19.875 42.8333C20.2643 43.2195 20.7261 43.525 21.2337 43.7324C21.7414 43.9397 22.285 44.0448 22.8333 44.0417C23.3817 44.0448 23.9253 43.9397 24.4329 43.7324C24.9406 43.525 25.4023 43.2195 25.7917 42.8333C26.5677 42.0527 27.0033 40.9966 27.0033 39.8958C27.0033 38.7951 26.5677 37.739 25.7917 36.9583L11.0417 22Z" fill="currentColor"/>
  </symbol>
  <symbol id="chevron-right" viewBox="0 0 28 45" fill="none">
    <path d="M16.9583 22L2.20834 7.25001C1.4323 6.46933 0.996707 5.41328 0.996707 4.31251C0.996707 3.21174 1.4323 2.15569 2.20834 1.37501C2.59569 0.984475 3.05653 0.674498 3.56427 0.462962C4.07202 0.251425 4.61663 0.142517 5.16668 0.142517C5.71673 0.142517 6.26133 0.251425 6.76908 0.462962C7.27683 0.674498 7.73766 0.984475 8.12501 1.37501L25.7917 19.0417C26.1822 19.429 26.4922 19.8899 26.7037 20.3976C26.9153 20.9054 27.0242 21.45 27.0242 22C27.0242 22.5501 26.9153 23.0947 26.7037 23.6024C26.4922 24.1102 26.1822 24.571 25.7917 24.9583L8.12501 42.8333C7.73568 43.2195 7.27394 43.525 6.76629 43.7324C6.25863 43.9397 5.71504 44.0448 5.16668 44.0417C4.61832 44.0448 4.07472 43.9397 3.56707 43.7324C3.05941 43.525 2.59768 43.2195 2.20834 42.8333C1.4323 42.0527 0.996707 40.9966 0.996707 39.8958C0.996707 38.7951 1.4323 37.739 2.20834 36.9583L16.9583 22Z" fill="currentColor"/>
  </symbol>
  <symbol id="chevron-down" viewBox="0 0 12 8" fill="none">
    <path d="M1.41 0.580078L6 5.17008L10.59 0.580078L12 2.00008L6 8.00008L0 2.00008L1.41 0.580078Z" fill="currentColor"/>
  </symbol>
  <symbol id="gear" viewBox="0 0 20 20" fill="none">
    <path d="M11.0784 1.82514e-06C11.3724 1.82514e-06 11.6354 0.183002 11.7344 0.457002L12.4404 2.414C12.6934 2.477 12.9104 2.54 13.0944 2.606C13.2954 2.678 13.5544 2.787 13.8744 2.936L15.5184 2.066C15.6526 1.99491 15.8062 1.96925 15.9562 1.99287C16.1062 2.01649 16.2445 2.08811 16.3504 2.197L17.7964 3.692C17.9884 3.891 18.0424 4.182 17.9344 4.436L17.1634 6.243C17.2914 6.478 17.3934 6.679 17.4714 6.847C17.5554 7.03 17.6594 7.282 17.7834 7.607L19.5804 8.377C19.8504 8.492 20.0174 8.762 19.9994 9.051L19.8674 11.126C19.8583 11.2608 19.8099 11.39 19.7282 11.4975C19.6464 11.6051 19.5349 11.6863 19.4074 11.731L17.7054 12.336C17.6564 12.571 17.6054 12.772 17.5514 12.942C17.4643 13.2045 17.3648 13.4628 17.2534 13.716L18.1084 15.606C18.1687 15.7388 18.185 15.8874 18.1547 16.0301C18.1245 16.1728 18.0494 16.3021 17.9404 16.399L16.3144 17.851C16.2073 17.9462 16.0737 18.0064 15.9314 18.0236C15.7891 18.0408 15.645 18.014 15.5184 17.947L13.8424 17.059C13.5802 17.1978 13.3096 17.3204 13.0324 17.426L12.3004 17.7L11.6504 19.5C11.6022 19.6318 11.5153 19.746 11.4011 19.8276C11.2869 19.9091 11.1507 19.9542 11.0104 19.957L9.11037 20C8.96633 20.0038 8.82466 19.9628 8.70486 19.8828C8.58505 19.8027 8.493 19.6875 8.44137 19.553L7.67537 17.526C7.41401 17.4367 7.15524 17.34 6.89937 17.236C6.69008 17.1454 6.48396 17.0477 6.28137 16.943L4.38137 17.755C4.25618 17.8084 4.11816 17.8243 3.98411 17.8007C3.85006 17.7771 3.72577 17.715 3.62637 17.622L2.22037 16.303C2.11569 16.2052 2.0444 16.077 2.01658 15.9365C1.98877 15.796 2.00583 15.6503 2.06537 15.52L2.88237 13.74C2.77371 13.5292 2.67297 13.3144 2.58037 13.096C2.47227 12.8287 2.37222 12.5583 2.28037 12.285L0.490367 11.74C0.344868 11.696 0.217962 11.6052 0.129357 11.4817C0.0407526 11.3582 -0.0045913 11.2089 0.000367469 11.057L0.0703675 9.136C0.0753501 9.01066 0.114504 8.88907 0.183595 8.78438C0.252687 8.67968 0.349086 8.59587 0.462367 8.542L2.34037 7.64C2.42737 7.321 2.50337 7.073 2.57037 6.892C2.66471 6.65025 2.76947 6.41269 2.88437 6.18L2.07037 4.46C2.00859 4.32938 1.98983 4.18254 2.01679 4.04059C2.04374 3.89864 2.11502 3.76889 2.22037 3.67L3.62437 2.344C3.72279 2.25117 3.84594 2.18876 3.979 2.16428C4.11205 2.1398 4.24935 2.15429 4.37437 2.206L6.27237 2.99C6.48237 2.85 6.67237 2.737 6.84437 2.646C7.04937 2.537 7.32337 2.423 7.66837 2.3L8.32837 0.459002C8.37716 0.32427 8.46635 0.207883 8.58376 0.125733C8.70117 0.0435827 8.84107 -0.000326251 8.98437 1.82514e-06H11.0784ZM10.0244 7.019C8.35737 7.019 7.00637 8.354 7.00637 10.002C7.00637 11.65 8.35737 12.986 10.0244 12.986C11.6904 12.986 13.0414 11.65 13.0414 10.002C13.0414 8.354 11.6914 7.019 10.0244 7.019Z" fill="currentColor"/>
  </symbol>
  <symbol id="arrow-right" viewBox="0 0 19 16" fill="none">
    <path d="M0.0975257 7.00306H15.074L10.4142 2.34323L11.8284 0.929013L18.8995 8.00008L11.8284 15.0711L10.4142 13.6569L15.074 8.9971H0.0975257V7.00306Z" fill="currentColor"/>
  </symbol>
  <symbol id="arrow-left" viewBox="0 0 26 20" fill="none">
    <path d="M25.87 11.3294L5.90127 11.3294L12.1144 17.5425L10.2288 19.4281L0.800672 10L10.2288 0.571923L12.1144 2.45754L5.90127 8.67065L25.87 8.67065L25.87 11.3294Z" fill="currentColor"/>
  </symbol>
  <symbol id="exclamation-mark" viewBox="0 0 18 18" fill="none">
    <path d="M9 6V9M9 12H9.0075M16.5 9C16.5 13.1421 13.1421 16.5 9 16.5C4.85786 16.5 1.5 13.1421 1.5 9C1.5 4.85786 4.85786 1.5 9 1.5C13.1421 1.5 16.5 4.85786 16.5 9Z" stroke="currentColor" stroke-width="1.3" stroke-linecap="round" stroke-linejoin="round"/>
  </symbol>
  <symbol id="play-circle" viewBox="0 0 80 81" fill="none">
    <path d="M40 0C17.9107 0 0 17.9999 0 40.1993C0 62.3986 17.9107 80.3985 40 80.3985C62.0893 80.3985 80 62.3986 80 40.1993C80 17.9999 62.0893 0 40 0ZM52.8661 40.8184L33.3661 55.0766C33.2592 55.1538 33.1332 55.1999 33.0019 55.2098C32.8706 55.2197 32.7392 55.1931 32.622 55.1328C32.5048 55.0725 32.4064 54.9809 32.3376 54.8681C32.2689 54.7553 32.2324 54.6256 32.2321 54.4933V25.9949C32.2317 25.8624 32.2678 25.7323 32.3364 25.6191C32.4051 25.5058 32.5036 25.414 32.621 25.3536C32.7384 25.2932 32.8702 25.2666 33.0017 25.2769C33.1332 25.2871 33.2593 25.3338 33.3661 25.4117L52.8661 39.6609C52.9582 39.7264 53.0333 39.8131 53.0852 39.9138C53.1371 40.0145 53.1642 40.1262 53.1642 40.2396C53.1642 40.353 53.1371 40.4648 53.0852 40.5655C53.0333 40.6662 52.9582 40.7529 52.8661 40.8184Z" fill="currentColor"/>
  </symbol>
  <symbol id="quote" viewBox="0 0 41 32" fill="none">
    <path d="M4.38188 4.584C7.18788 1.542 11.4339 0 16.9999 0H18.9999V5.638L17.3919 5.96C14.6519 6.508 12.7459 7.586 11.7259 9.168C11.1937 10.0203 10.8918 10.9961 10.8499 12H16.9999C17.5303 12 18.039 12.2107 18.4141 12.5858C18.7892 12.9609 18.9999 13.4696 18.9999 14V28C18.9999 30.206 17.2059 32 14.9999 32H2.99988C2.46945 32 1.96074 31.7893 1.58567 31.4142C1.21059 31.0391 0.99988 30.5304 0.99988 30V20L1.00588 14.162C0.98788 13.94 0.60788 8.68 4.38188 4.584ZM36.9999 32H24.9999C24.4694 32 23.9607 31.7893 23.5857 31.4142C23.2106 31.0391 22.9999 30.5304 22.9999 30V20L23.0059 14.162C22.9879 13.94 22.6079 8.68 26.3819 4.584C29.1879 1.542 33.4339 0 38.9999 0H40.9999V5.638L39.3919 5.96C36.6519 6.508 34.7459 7.586 33.7259 9.168C33.1937 10.0203 32.8918 10.9961 32.8499 12H38.9999C39.5303 12 40.039 12.2107 40.4141 12.5858C40.7892 12.9609 40.9999 13.4696 40.9999 14V28C40.9999 30.206 39.2059 32 36.9999 32Z" fill="currentColor" />
  </symbol>
  <symbol id="minus" viewBox="0 0 12 3" fill="none">
    <path d="M0 0.00146484H12V2.00146H0V0.00146484Z" fill="currentColor"/>
  </symbol>
   <symbol id="plus" viewBox="0 0 12 13" fill="none">
    <path d="M12 5.00146H7V0.00146484H5V5.00146H0V7.00146H5V12.0015H7V7.00146H12V5.00146Z" fill="currentColor"/>
  </symbol>
  <symbol id="cross" viewBox="0 0 20 20" fill="none">
    <path fill-rule="evenodd" clip-rule="evenodd" d="M8.20868 10.0945L0.666016 2.55184L2.55135 0.666504L10.094 8.20917L17.6367 0.666504L19.522 2.55184L11.9793 10.0945L19.522 17.6372L17.6367 19.5225L10.094 11.9798L2.55135 19.5225L0.666016 17.6372L8.20868 10.0945Z" fill="currentColor"/>
  </symbol>
  <symbol id="crown" viewBox="0 0 18 16" fill="none">
    <path d="M2 12L0 1L5.5 6L9 0L12.5 6L18 1L16 12H2ZM16 15C16 15.6 15.6 16 15 16H3C2.4 16 2 15.6 2 15V14H16V15Z" fill="currentColor"/>
  </symbol>
  <symbol id="check" viewBox="0 0 18 14" fill="none">
    <path d="M18 1.99984L6 13.9998L0.5 8.49984L1.91 7.08984L6 11.1698L16.59 0.589844L18 1.99984Z" fill="currentColor"/>
  </symbol>
  <symbol id="tag" viewBox="0 0 22 22" fill="none">
    <path d="M5.58331 4.49998C5.36905 4.49998 5.1596 4.56351 4.98144 4.68255C4.80329 4.80159 4.66444 4.97078 4.58244 5.16874C4.50045 5.36669 4.47899 5.58451 4.52079 5.79466C4.56259 6.0048 4.66577 6.19784 4.81728 6.34934C4.96879 6.50085 5.16182 6.60403 5.37196 6.64583C5.58211 6.68763 5.79993 6.66618 5.99788 6.58418C6.19584 6.50219 6.36503 6.36333 6.48407 6.18518C6.60311 6.00703 6.66664 5.79757 6.66664 5.58331C6.66664 5.29599 6.55251 5.02044 6.34934 4.81728C6.14618 4.61411 5.87063 4.49998 5.58331 4.49998ZM21.5191 10.7616L11.2491 0.513311C11.1481 0.404396 11.0258 0.317417 10.8898 0.25778C10.7537 0.198143 10.6069 0.167122 10.4583 0.166644H3.95831C3.81574 0.16582 3.6744 0.193147 3.54241 0.247059C3.41042 0.30097 3.29037 0.380406 3.18914 0.480811L0.480811 3.17831C0.380406 3.27954 0.30097 3.39959 0.247059 3.53158C0.193147 3.66357 0.16582 3.8049 0.166644 3.94748V10.4475C0.170635 10.7343 0.282849 11.009 0.480811 11.2166L10.7616 21.5083C10.9692 21.7063 11.244 21.8185 11.5308 21.8225C11.6734 21.8233 11.8147 21.796 11.9467 21.7421C12.0787 21.6882 12.1988 21.6087 12.3 21.5083L21.5191 12.2891C21.6195 12.1879 21.699 12.0679 21.7529 11.9359C21.8068 11.8039 21.8341 11.6626 21.8333 11.52C21.8266 11.2369 21.7146 10.9665 21.5191 10.7616V10.7616ZM11.5308 19.2225L2.33331 10.0141V4.39164L4.39164 2.33331H10.0033L19.2116 11.5308L11.5308 19.2225Z" fill="currentColor" />
  </symbol>
  <symbol id="touch" viewBox="0 0 16 21">
    <path d="M4.79 8.24V4.5C4.79 3.12 5.91 2 7.29 2C8.67 2 9.79 3.12 9.79 4.5V8.24C11 7.43 11.79 6.06 11.79 4.5C11.79 2.01 9.78 0 7.29 0C4.8 0 2.79 2.01 2.79 4.5C2.79 6.06 3.58 7.43 4.79 8.24ZM10.29 10.71C10.01 10.57 9.71 10.5 9.4 10.5H8.79V4.5C8.79 3.67 8.12 3 7.29 3C6.46 3 5.79 3.67 5.79 4.5V15.24L2.35 14.52C1.98 14.44 1.59 14.56 1.32 14.83C0.889998 15.27 0.889998 15.97 1.32 16.41L5.33 20.42C5.71 20.79 6.22 21 6.75 21H12.85C13.85 21 14.69 20.27 14.83 19.28L15.46 14.81C15.58 13.96 15.14 13.12 14.37 12.74L10.29 10.71Z" fill="#9699A5"/>
  </symbol>
</svg>
