<svg xmlns="http://www.w3.org/2000/svg">
  <symbol id="chevron-left" viewBox="0 0 28 45" fill="none">
    <path d="M11.0417 22L25.7917 7.25001C26.5677 6.46933 27.0033 5.41328 27.0033 4.31251C27.0033 3.21174 26.5677 2.15569 25.7917 1.37501C25.4043 0.984475 24.9435 0.674498 24.4357 0.462962C23.928 0.251425 23.3834 0.142517 22.8333 0.142517C22.2833 0.142517 21.7387 0.251425 21.2309 0.462962C20.7232 0.674498 20.2623 0.984475 19.875 1.37501L2.20832 19.0417C1.81779 19.429 1.50781 19.8899 1.29628 20.3976C1.08474 20.9054 0.97583 21.45 0.97583 22C0.97583 22.5501 1.08474 23.0947 1.29628 23.6024C1.50781 24.1102 1.81779 24.571 2.20832 24.9583L19.875 42.8333C20.2643 43.2195 20.7261 43.525 21.2337 43.7324C21.7414 43.9397 22.285 44.0448 22.8333 44.0417C23.3817 44.0448 23.9253 43.9397 24.4329 43.7324C24.9406 43.525 25.4023 43.2195 25.7917 42.8333C26.5677 42.0527 27.0033 40.9966 27.0033 39.8958C27.0033 38.7951 26.5677 37.739 25.7917 36.9583L11.0417 22Z" fill="currentColor"/>
  </symbol>
  <symbol id="chevron-right" viewBox="0 0 28 45" fill="none">
    <path d="M16.9583 22L2.20834 7.25001C1.4323 6.46933 0.996707 5.41328 0.996707 4.31251C0.996707 3.21174 1.4323 2.15569 2.20834 1.37501C2.59569 0.984475 3.05653 0.674498 3.56427 0.462962C4.07202 0.251425 4.61663 0.142517 5.16668 0.142517C5.71673 0.142517 6.26133 0.251425 6.76908 0.462962C7.27683 0.674498 7.73766 0.984475 8.12501 1.37501L25.7917 19.0417C26.1822 19.429 26.4922 19.8899 26.7037 20.3976C26.9153 20.9054 27.0242 21.45 27.0242 22C27.0242 22.5501 26.9153 23.0947 26.7037 23.6024C26.4922 24.1102 26.1822 24.571 25.7917 24.9583L8.12501 42.8333C7.73568 43.2195 7.27394 43.525 6.76629 43.7324C6.25863 43.9397 5.71504 44.0448 5.16668 44.0417C4.61832 44.0448 4.07472 43.9397 3.56707 43.7324C3.05941 43.525 2.59768 43.2195 2.20834 42.8333C1.4323 42.0527 0.996707 40.9966 0.996707 39.8958C0.996707 38.7951 1.4323 37.739 2.20834 36.9583L16.9583 22Z" fill="currentColor"/>
  </symbol>
  <symbol id="chevron-down" viewBox="0 0 12 8" fill="none">
    <path d="M1.41 0.580078L6 5.17008L10.59 0.580078L12 2.00008L6 8.00008L0 2.00008L1.41 0.580078Z" fill="currentColor"/>
  </symbol>
  <symbol id="gear" viewBox="0 0 20 20" fill="none">
    <path d="M11.0784 1.82514e-06C11.3724 1.82514e-06 11.6354 0.183002 11.7344 0.457002L12.4404 2.414C12.6934 2.477 12.9104 2.54 13.0944 2.606C13.2954 2.678 13.5544 2.787 13.8744 2.936L15.5184 2.066C15.6526 1.99491 15.8062 1.96925 15.9562 1.99287C16.1062 2.01649 16.2445 2.08811 16.3504 2.197L17.7964 3.692C17.9884 3.891 18.0424 4.182 17.9344 4.436L17.1634 6.243C17.2914 6.478 17.3934 6.679 17.4714 6.847C17.5554 7.03 17.6594 7.282 17.7834 7.607L19.5804 8.377C19.8504 8.492 20.0174 8.762 19.9994 9.051L19.8674 11.126C19.8583 11.2608 19.8099 11.39 19.7282 11.4975C19.6464 11.6051 19.5349 11.6863 19.4074 11.731L17.7054 12.336C17.6564 12.571 17.6054 12.772 17.5514 12.942C17.4643 13.2045 17.3648 13.4628 17.2534 13.716L18.1084 15.606C18.1687 15.7388 18.185 15.8874 18.1547 16.0301C18.1245 16.1728 18.0494 16.3021 17.9404 16.399L16.3144 17.851C16.2073 17.9462 16.0737 18.0064 15.9314 18.0236C15.7891 18.0408 15.645 18.014 15.5184 17.947L13.8424 17.059C13.5802 17.1978 13.3096 17.3204 13.0324 17.426L12.3004 17.7L11.6504 19.5C11.6022 19.6318 11.5153 19.746 11.4011 19.8276C11.2869 19.9091 11.1507 19.9542 11.0104 19.957L9.11037 20C8.96633 20.0038 8.82466 19.9628 8.70486 19.8828C8.58505 19.8027 8.493 19.6875 8.44137 19.553L7.67537 17.526C7.41401 17.4367 7.15524 17.34 6.89937 17.236C6.69008 17.1454 6.48396 17.0477 6.28137 16.943L4.38137 17.755C4.25618 17.8084 4.11816 17.8243 3.98411 17.8007C3.85006 17.7771 3.72577 17.715 3.62637 17.622L2.22037 16.303C2.11569 16.2052 2.0444 16.077 2.01658 15.9365C1.98877 15.796 2.00583 15.6503 2.06537 15.52L2.88237 13.74C2.77371 13.5292 2.67297 13.3144 2.58037 13.096C2.47227 12.8287 2.37222 12.5583 2.28037 12.285L0.490367 11.74C0.344868 11.696 0.217962 11.6052 0.129357 11.4817C0.0407526 11.3582 -0.0045913 11.2089 0.000367469 11.057L0.0703675 9.136C0.0753501 9.01066 0.114504 8.88907 0.183595 8.78438C0.252687 8.67968 0.349086 8.59587 0.462367 8.542L2.34037 7.64C2.42737 7.321 2.50337 7.073 2.57037 6.892C2.66471 6.65025 2.76947 6.41269 2.88437 6.18L2.07037 4.46C2.00859 4.32938 1.98983 4.18254 2.01679 4.04059C2.04374 3.89864 2.11502 3.76889 2.22037 3.67L3.62437 2.344C3.72279 2.25117 3.84594 2.18876 3.979 2.16428C4.11205 2.1398 4.24935 2.15429 4.37437 2.206L6.27237 2.99C6.48237 2.85 6.67237 2.737 6.84437 2.646C7.04937 2.537 7.32337 2.423 7.66837 2.3L8.32837 0.459002C8.37716 0.32427 8.46635 0.207883 8.58376 0.125733C8.70117 0.0435827 8.84107 -0.000326251 8.98437 1.82514e-06H11.0784ZM10.0244 7.019C8.35737 7.019 7.00637 8.354 7.00637 10.002C7.00637 11.65 8.35737 12.986 10.0244 12.986C11.6904 12.986 13.0414 11.65 13.0414 10.002C13.0414 8.354 11.6914 7.019 10.0244 7.019Z" fill="currentColor"/>
  </symbol>
  <symbol id="arrow-right" viewBox="0 0 19 16" fill="none">
    <path d="M0.0975257 7.00306H15.074L10.4142 2.34323L11.8284 0.929013L18.8995 8.00008L11.8284 15.0711L10.4142 13.6569L15.074 8.9971H0.0975257V7.00306Z" fill="currentColor"/>
  </symbol>
  <symbol id="arrow-left" viewBox="0 0 26 20" fill="none">
    <path d="M25.87 11.3294L5.90127 11.3294L12.1144 17.5425L10.2288 19.4281L0.800672 10L10.2288 0.571923L12.1144 2.45754L5.90127 8.67065L25.87 8.67065L25.87 11.3294Z" fill="currentColor"/>
  </symbol>
  <symbol id="exclamation-mark" viewBox="0 0 18 18" fill="none">
    <path d="M9 6V9M9 12H9.0075M16.5 9C16.5 13.1421 13.1421 16.5 9 16.5C4.85786 16.5 1.5 13.1421 1.5 9C1.5 4.85786 4.85786 1.5 9 1.5C13.1421 1.5 16.5 4.85786 16.5 9Z" stroke="currentColor" stroke-width="1.3" stroke-linecap="round" stroke-linejoin="round"/>
  </symbol>
  <symbol id="play-circle" viewBox="0 0 80 81" fill="none">
    <path d="M40 0C17.9107 0 0 17.9999 0 40.1993C0 62.3986 17.9107 80.3985 40 80.3985C62.0893 80.3985 80 62.3986 80 40.1993C80 17.9999 62.0893 0 40 0ZM52.8661 40.8184L33.3661 55.0766C33.2592 55.1538 33.1332 55.1999 33.0019 55.2098C32.8706 55.2197 32.7392 55.1931 32.622 55.1328C32.5048 55.0725 32.4064 54.9809 32.3376 54.8681C32.2689 54.7553 32.2324 54.6256 32.2321 54.4933V25.9949C32.2317 25.8624 32.2678 25.7323 32.3364 25.6191C32.4051 25.5058 32.5036 25.414 32.621 25.3536C32.7384 25.2932 32.8702 25.2666 33.0017 25.2769C33.1332 25.2871 33.2593 25.3338 33.3661 25.4117L52.8661 39.6609C52.9582 39.7264 53.0333 39.8131 53.0852 39.9138C53.1371 40.0145 53.1642 40.1262 53.1642 40.2396C53.1642 40.353 53.1371 40.4648 53.0852 40.5655C53.0333 40.6662 52.9582 40.7529 52.8661 40.8184Z" fill="currentColor"/>
  </symbol>
  <symbol id="quote" viewBox="0 0 41 32" fill="none">
    <path d="M4.38188 4.584C7.18788 1.542 11.4339 0 16.9999 0H18.9999V5.638L17.3919 5.96C14.6519 6.508 12.7459 7.586 11.7259 9.168C11.1937 10.0203 10.8918 10.9961 10.8499 12H16.9999C17.5303 12 18.039 12.2107 18.4141 12.5858C18.7892 12.9609 18.9999 13.4696 18.9999 14V28C18.9999 30.206 17.2059 32 14.9999 32H2.99988C2.46945 32 1.96074 31.7893 1.58567 31.4142C1.21059 31.0391 0.99988 30.5304 0.99988 30V20L1.00588 14.162C0.98788 13.94 0.60788 8.68 4.38188 4.584ZM36.9999 32H24.9999C24.4694 32 23.9607 31.7893 23.5857 31.4142C23.2106 31.0391 22.9999 30.5304 22.9999 30V20L23.0059 14.162C22.9879 13.94 22.6079 8.68 26.3819 4.584C29.1879 1.542 33.4339 0 38.9999 0H40.9999V5.638L39.3919 5.96C36.6519 6.508 34.7459 7.586 33.7259 9.168C33.1937 10.0203 32.8918 10.9961 32.8499 12H38.9999C39.5303 12 40.039 12.2107 40.4141 12.5858C40.7892 12.9609 40.9999 13.4696 40.9999 14V28C40.9999 30.206 39.2059 32 36.9999 32Z" fill="currentColor" />
  </symbol>
  <symbol id="minus" viewBox="0 0 12 3" fill="none">
    <path d="M0 0.00146484H12V2.00146H0V0.00146484Z" fill="currentColor"/>
  </symbol>
   <symbol id="plus" viewBox="0 0 12 13" fill="none">
    <path d="M12 5.00146H7V0.00146484H5V5.00146H0V7.00146H5V12.0015H7V7.00146H12V5.00146Z" fill="currentColor"/>
  </symbol>
  <symbol id="cross" viewBox="0 0 20 20" fill="none">
    <path fill-rule="evenodd" clip-rule="evenodd" d="M8.20868 10.0945L0.666016 2.55184L2.55135 0.666504L10.094 8.20917L17.6367 0.666504L19.522 2.55184L11.9793 10.0945L19.522 17.6372L17.6367 19.5225L10.094 11.9798L2.55135 19.5225L0.666016 17.6372L8.20868 10.0945Z" fill="currentColor"/>
  </symbol>
  <symbol id="crown" viewBox="0 0 18 16" fill="none">
    <path d="M2 12L0 1L5.5 6L9 0L12.5 6L18 1L16 12H2ZM16 15C16 15.6 15.6 16 15 16H3C2.4 16 2 15.6 2 15V14H16V15Z" fill="currentColor"/>
  </symbol>
  <symbol id="check" viewBox="0 0 18 14" fill="none">
    <path d="M18 1.99984L6 13.9998L0.5 8.49984L1.91 7.08984L6 11.1698L16.59 0.589844L18 1.99984Z" fill="currentColor"/>
  </symbol>
  <symbol id="tag" viewBox="0 0 22 22" fill="none">
    <path d="M5.58331 4.49998C5.36905 4.49998 5.1596 4.56351 4.98144 4.68255C4.80329 4.80159 4.66444 4.97078 4.58244 5.16874C4.50045 5.36669 4.47899 5.58451 4.52079 5.79466C4.56259 6.0048 4.66577 6.19784 4.81728 6.34934C4.96879 6.50085 5.16182 6.60403 5.37196 6.64583C5.58211 6.68763 5.79993 6.66618 5.99788 6.58418C6.19584 6.50219 6.36503 6.36333 6.48407 6.18518C6.60311 6.00703 6.66664 5.79757 6.66664 5.58331C6.66664 5.29599 6.55251 5.02044 6.34934 4.81728C6.14618 4.61411 5.87063 4.49998 5.58331 4.49998ZM21.5191 10.7616L11.2491 0.513311C11.1481 0.404396 11.0258 0.317417 10.8898 0.25778C10.7537 0.198143 10.6069 0.167122 10.4583 0.166644H3.95831C3.81574 0.16582 3.6744 0.193147 3.54241 0.247059C3.41042 0.30097 3.29037 0.380406 3.18914 0.480811L0.480811 3.17831C0.380406 3.27954 0.30097 3.39959 0.247059 3.53158C0.193147 3.66357 0.16582 3.8049 0.166644 3.94748V10.4475C0.170635 10.7343 0.282849 11.009 0.480811 11.2166L10.7616 21.5083C10.9692 21.7063 11.244 21.8185 11.5308 21.8225C11.6734 21.8233 11.8147 21.796 11.9467 21.7421C12.0787 21.6882 12.1988 21.6087 12.3 21.5083L21.5191 12.2891C21.6195 12.1879 21.699 12.0679 21.7529 11.9359C21.8068 11.8039 21.8341 11.6626 21.8333 11.52C21.8266 11.2369 21.7146 10.9665 21.5191 10.7616V10.7616ZM11.5308 19.2225L2.33331 10.0141V4.39164L4.39164 2.33331H10.0033L19.2116 11.5308L11.5308 19.2225Z" fill="currentColor" />
  </symbol>
  <symbol id="touch" viewBox="0 0 16 21">
    <path d="M4.79 8.24V4.5C4.79 3.12 5.91 2 7.29 2C8.67 2 9.79 3.12 9.79 4.5V8.24C11 7.43 11.79 6.06 11.79 4.5C11.79 2.01 9.78 0 7.29 0C4.8 0 2.79 2.01 2.79 4.5C2.79 6.06 3.58 7.43 4.79 8.24ZM10.29 10.71C10.01 10.57 9.71 10.5 9.4 10.5H8.79V4.5C8.79 3.67 8.12 3 7.29 3C6.46 3 5.79 3.67 5.79 4.5V15.24L2.35 14.52C1.98 14.44 1.59 14.56 1.32 14.83C0.889998 15.27 0.889998 15.97 1.32 16.41L5.33 20.42C5.71 20.79 6.22 21 6.75 21H12.85C13.85 21 14.69 20.27 14.83 19.28L15.46 14.81C15.58 13.96 15.14 13.12 14.37 12.74L10.29 10.71Z" fill="#9699A5"/>
  </symbol>
  <symbol id="home" viewBox="0 0 18 18" fill="none">
    <path d="M17.4863 8.86327L9.44141 0.824203C9.38348 0.766164 9.31468 0.720118 9.23894 0.688701C9.16319 0.657284 9.082 0.641113 9 0.641113C8.918 0.641113 8.83681 0.657284 8.76106 0.688701C8.68532 0.720118 8.61652 0.766164 8.55859 0.824203L0.513672 8.86327C0.279297 9.09764 0.146484 9.416 0.146484 9.74803C0.146484 10.4375 0.707031 10.998 1.39648 10.998H2.24414V16.7344C2.24414 17.0801 2.52344 17.3594 2.86914 17.3594H7.75V12.9844H9.9375V17.3594H15.1309C15.4766 17.3594 15.7559 17.0801 15.7559 16.7344V10.998H16.6035C16.9355 10.998 17.2539 10.8672 17.4883 10.6308C17.9746 10.1426 17.9746 9.35155 17.4863 8.86327Z" fill="currentColor"/>
  </symbol>
  <symbol id="font-size" viewBox="0 0 34 28" fill="none">
    <path d="M20.333 27.3334V5.66675H11.9997V0.666748H33.6663V5.66675H25.333V27.3334H20.333ZM5.33301 27.3334V14.0001H0.333008V9.00008H15.333V14.0001H10.333V27.3334H5.33301Z" fill="currentColor"/>
  </symbol>
  <symbol id="question-mark" viewBox="0 0 20 20" fill="none">
    <path d="M10 0C4.486 0 0 4.486 0 10C0 15.514 4.486 20 10 20C15.514 20 20 15.514 20 10C20 4.486 15.514 0 10 0ZM11 16H9V14H11V16ZM11.976 11.115C11.78 11.273 11.591 11.424 11.441 11.574C11.033 11.981 11.001 12.351 11 12.367V12.5H9V12.333C9 12.215 9.029 11.156 10.026 10.159C10.221 9.964 10.463 9.766 10.717 9.56C11.451 8.965 11.933 8.531 11.933 7.933C11.9214 7.42782 11.7125 6.94725 11.3511 6.59412C10.9896 6.24099 10.5043 6.04334 9.99901 6.04347C9.4937 6.0436 9.0085 6.2415 8.64725 6.59482C8.28599 6.94814 8.07736 7.42881 8.066 7.934H6.066C6.066 5.765 7.831 4 10 4C12.169 4 13.934 5.765 13.934 7.934C13.934 9.531 12.755 10.484 11.976 11.115Z" fill="currentColor"/>
  </symbol>
  <symbol id="github" viewBox="0 0 40 40" fill="none">
    <path d="M13.379 31.0469C13.379 31.2031 13.1935 31.3281 12.9597 31.3281C12.6935 31.3516 12.5081 31.2266 12.5081 31.0469C12.5081 30.8906 12.6935 30.7656 12.9274 30.7656C13.1694 30.7422 13.379 30.8672 13.379 31.0469ZM10.871 30.6953C10.8145 30.8516 10.9758 31.0312 11.2177 31.0781C11.4274 31.1562 11.6694 31.0781 11.7177 30.9219C11.7661 30.7656 11.6129 30.5859 11.371 30.5156C11.1613 30.4609 10.9274 30.5391 10.871 30.6953ZM14.4355 30.5625C14.2016 30.6172 14.0403 30.7656 14.0645 30.9453C14.0887 31.1016 14.2984 31.2031 14.5403 31.1484C14.7742 31.0937 14.9355 30.9453 14.9113 30.7891C14.8871 30.6406 14.6694 30.5391 14.4355 30.5625ZM19.7419 0.625C8.55645 0.625 0 8.85156 0 19.6875C0 28.3516 5.62903 35.7656 13.6694 38.375C14.7016 38.5547 15.0645 37.9375 15.0645 37.4297C15.0645 36.9453 15.0403 34.2734 15.0403 32.6328C15.0403 32.6328 9.39516 33.8047 8.20968 30.3047C8.20968 30.3047 7.29032 28.0312 5.96774 27.4453C5.96774 27.4453 4.12097 26.2187 6.09677 26.2422C6.09677 26.2422 8.10484 26.3984 9.20968 28.2578C10.9758 31.2734 13.9355 30.4062 15.0887 29.8906C15.2742 28.6406 15.7984 27.7734 16.379 27.2578C11.871 26.7734 7.32258 26.1406 7.32258 18.625C7.32258 16.4766 7.93548 15.3984 9.22581 14.0234C9.01613 13.5156 8.33064 11.4219 9.43548 8.71875C11.121 8.21094 15 10.8281 15 10.8281C16.6129 10.3906 18.3468 10.1641 20.0645 10.1641C21.7823 10.1641 23.5161 10.3906 25.129 10.8281C25.129 10.8281 29.0081 8.20312 30.6935 8.71875C31.7984 11.4297 31.1129 13.5156 30.9032 14.0234C32.1936 15.4062 32.9839 16.4844 32.9839 18.625C32.9839 26.1641 28.2339 26.7656 23.7258 27.2578C24.4677 27.875 25.0968 29.0469 25.0968 30.8828C25.0968 33.5156 25.0726 36.7734 25.0726 37.4141C25.0726 37.9219 25.4435 38.5391 26.4677 38.3594C34.5323 35.7656 40 28.3516 40 19.6875C40 8.85156 30.9274 0.625 19.7419 0.625ZM7.83871 27.5703C7.73387 27.6484 7.75806 27.8281 7.89516 27.9766C8.02419 28.1016 8.20968 28.1562 8.31452 28.0547C8.41935 27.9766 8.39516 27.7969 8.25806 27.6484C8.12903 27.5234 7.94355 27.4687 7.83871 27.5703ZM6.96774 26.9375C6.91129 27.0391 6.99194 27.1641 7.15323 27.2422C7.28226 27.3203 7.44355 27.2969 7.5 27.1875C7.55645 27.0859 7.47581 26.9609 7.31452 26.8828C7.15323 26.8359 7.02419 26.8594 6.96774 26.9375ZM9.58065 29.7187C9.45161 29.8203 9.5 30.0547 9.68548 30.2031C9.87097 30.3828 10.1048 30.4062 10.2097 30.2812C10.3145 30.1797 10.2661 29.9453 10.1048 29.7969C9.92742 29.6172 9.68548 29.5937 9.58065 29.7187ZM8.66129 28.5703C8.53226 28.6484 8.53226 28.8516 8.66129 29.0312C8.79032 29.2109 9.00806 29.2891 9.1129 29.2109C9.24193 29.1094 9.24193 28.9062 9.1129 28.7266C9 28.5469 8.79032 28.4687 8.66129 28.5703Z" fill="black"/>
  </symbol>
  <symbol id="google" viewBox="0 0 40 40" fill="none">
    <g clip-path="url(#clip0_224_80)">
      <path d="M40 20.4531C40 31.5078 32.0574 39.375 20.3279 39.375C9.08197 39.375 0 30.7188 0 20C0 9.28125 9.08197 0.625 20.3279 0.625C25.8033 0.625 30.4098 2.53906 33.959 5.69531L28.4262 10.7656C21.1885 4.10938 7.72951 9.10938 7.72951 20C7.72951 26.7578 13.3934 32.2344 20.3279 32.2344C28.377 32.2344 31.3934 26.7344 31.8689 23.8828H20.3279V17.2188H39.6803C39.8689 18.2109 40 19.1641 40 20.4531Z" fill="white"/>
    </g>
    <defs>
      <clipPath id="clip0_224_80">
        <rect width="40" height="40" fill="white"/>
      </clipPath>
    </defs>
  </symbol>
  <symbol id="facebook" viewBox="0 0 40 40" fill="none">
    <g clip-path="url(#clip0_224_82)">
      <path d="M39.375 20C39.375 9.29688 30.7031 0.625 20 0.625C9.29688 0.625 0.625 9.29688 0.625 20C0.625 29.6703 7.71016 37.6859 16.9727 39.1406V25.6008H12.0508V20H16.9727V15.7312C16.9727 10.8758 19.8633 8.19375 24.2906 8.19375C26.4109 8.19375 28.6281 8.57188 28.6281 8.57188V13.3375H26.1844C23.7781 13.3375 23.0273 14.8312 23.0273 16.3633V20H28.4008L27.5414 25.6008H23.0273V39.1406C32.2898 37.6859 39.375 29.6703 39.375 20Z" fill="white"/>
    </g>
    <defs>
      <clipPath id="clip0_224_82">
        <rect width="40" height="40" fill="white"/>
      </clipPath>
    </defs>
  </symbol>
  <symbol id="timer" viewBox="0 0 18 21" fill="none">
    <path d="M6 2V0H12V2H6ZM8 13H10V7H8V13ZM9 21C7.76667 21 6.604 20.7627 5.512 20.288C4.42067 19.8127 3.46667 19.1667 2.65 18.35C1.83333 17.5333 1.18733 16.5793 0.712 15.488C0.237333 14.396 0 13.2333 0 12C0 10.7667 0.237333 9.604 0.712 8.512C1.18733 7.42067 1.83333 6.46667 2.65 5.65C3.46667 4.83333 4.42067 4.18767 5.512 3.713C6.604 3.23767 7.76667 3 9 3C10.0333 3 11.025 3.16667 11.975 3.5C12.925 3.83333 13.8167 4.31667 14.65 4.95L16.05 3.55L17.45 4.95L16.05 6.35C16.6833 7.18333 17.1667 8.075 17.5 9.025C17.8333 9.975 18 10.9667 18 12C18 13.2333 17.7627 14.396 17.288 15.488C16.8127 16.5793 16.1667 17.5333 15.35 18.35C14.5333 19.1667 13.5793 19.8127 12.488 20.288C11.396 20.7627 10.2333 21 9 21Z" fill="#F5F5F5"/>
  </symbol>
</svg>
