<svg display="none" xmlns="http://www.w3.org/2000/svg">	
	<symbol id="buttonArrow" viewBox="0 0 24 24">
		<path d="M3.09753 11.0031H18.074L13.4142 6.34323L14.8284 4.92901L21.8995 12.0001L14.8284 19.0711L13.4142 17.6569L18.074 12.9971H3.09753V11.0031Z"/>
	</symbol>
	<symbol id="reviewsPrev" viewBox="0 0 28 45">
		<path d="M11.0417 22L25.7917 7.25001C26.5677 6.46933 27.0033 5.41328 27.0033 4.31251C27.0033 3.21174 26.5677 2.15569 25.7917 1.37501C25.4043 0.984475 24.9435 0.674498 24.4357 0.462962C23.928 0.251425 23.3834 0.142517 22.8333 0.142517C22.2833 0.142517 21.7387 0.251425 21.2309 0.462962C20.7232 0.674498 20.2623 0.984475 19.875 1.37501L2.20832 19.0417C1.81779 19.429 1.50781 19.8899 1.29628 20.3976C1.08474 20.9054 0.97583 21.45 0.97583 22C0.97583 22.5501 1.08474 23.0947 1.29628 23.6024C1.50781 24.1102 1.81779 24.571 2.20832 24.9583L19.875 42.8333C20.2643 43.2195 20.7261 43.525 21.2337 43.7324C21.7414 43.9397 22.285 44.0448 22.8333 44.0417C23.3817 44.0448 23.9253 43.9397 24.4329 43.7324C24.9406 43.525 25.4023 43.2195 25.7917 42.8333C26.5677 42.0527 27.0033 40.9966 27.0033 39.8958C27.0033 38.7951 26.5677 37.739 25.7917 36.9583L11.0417 22Z"/>
	</symbol>
	<symbol id="reviewsNext" viewBox="0 0 28 45">
		<path d="M16.9583 22L2.20834 7.25001C1.4323 6.46933 0.996708 5.41328 0.996708 4.31251C0.996708 3.21174 1.4323 2.15569 2.20834 1.37501C2.59569 0.984475 3.05653 0.674498 3.56427 0.462962C4.07202 0.251425 4.61663 0.142517 5.16668 0.142517C5.71673 0.142517 6.26133 0.251425 6.76908 0.462962C7.27683 0.674498 7.73766 0.984475 8.12501 1.37501L25.7917 19.0417C26.1822 19.429 26.4922 19.8899 26.7037 20.3976C26.9153 20.9054 27.0242 21.45 27.0242 22C27.0242 22.5501 26.9153 23.0947 26.7037 23.6024C26.4922 24.1102 26.1822 24.571 25.7917 24.9583L8.12501 42.8333C7.73568 43.2195 7.27394 43.525 6.76629 43.7324C6.25863 43.9397 5.71504 44.0448 5.16668 44.0417C4.61831 44.0448 4.07472 43.9397 3.56707 43.7324C3.05941 43.525 2.59768 43.2195 2.20834 42.8333C1.4323 42.0527 0.996708 40.9966 0.996708 39.8958C0.996708 38.7951 1.4323 37.739 2.20834 36.9583L16.9583 22Z"/>
	</symbol>
	<symbol id="play" viewBox="0 0 80 81">
		<path d="M40 0C17.9107 0 0 17.9999 0 40.1993C0 62.3986 17.9107 80.3985 40 80.3985C62.0893 80.3985 80 62.3986 80 40.1993C80 17.9999 62.0893 0 40 0ZM52.8661 40.8184L33.3661 55.0766C33.2592 55.1538 33.1332 55.1999 33.0019 55.2098C32.8706 55.2197 32.7392 55.1931 32.622 55.1328C32.5048 55.0725 32.4064 54.9809 32.3376 54.8681C32.2689 54.7553 32.2324 54.6256 32.2321 54.4933V25.9949C32.2317 25.8624 32.2678 25.7323 32.3364 25.6191C32.4051 25.5058 32.5036 25.414 32.621 25.3536C32.7384 25.2932 32.8702 25.2666 33.0017 25.2769C33.1332 25.2871 33.2593 25.3338 33.3661 25.4117L52.8661 39.6609C52.9582 39.7264 53.0333 39.8131 53.0852 39.9138C53.1371 40.0145 53.1642 40.1262 53.1642 40.2396C53.1642 40.353 53.1371 40.4648 53.0852 40.5655C53.0333 40.6662 52.9582 40.7529 52.8661 40.8184Z"/>
	</symbol>
	<symbol id="courseShowArrow" viewBox="0 0 24 24">
		<path d="M7.41 8.58008L12 13.1701L16.59 8.58008L18 10.0001L12 16.0001L6 10.0001L7.41 8.58008Z"/>
	</symbol>
	<symbol id="backArrow" viewBox="0 0 32 32">
		<path d="M27.87 17.3294L7.90127 17.3294L14.1144 23.5425L12.2288 25.4281L2.80067 16L12.2288 6.57192L14.1144 8.45754L7.90127 14.6707L27.87 14.6707L27.87 17.3294Z"/>
	</symbol>
	<symbol id="close" viewBox="0 0 32 32">
		<path fill-rule="evenodd" clip-rule="evenodd" d="M14.2087 16.0945L6.66602 8.55184L8.55135 6.6665L16.094 14.2092L23.6367 6.6665L25.522 8.55184L17.9793 16.0945L25.522 23.6372L23.6367 25.5225L16.094 17.9798L8.55135 25.5225L6.66602 23.6372L14.2087 16.0945Z"/>
	</symbol>
	<symbol id="question" viewBox="0 0 24 24">
		<path d="M12 0C5.3832 0 0 5.3832 0 12C0 18.6168 5.3832 24 12 24C18.6168 24 24 18.6168 24 12C24 5.3832 18.6168 0 12 0ZM13.2 19.2H10.8V16.8H13.2V19.2ZM14.3712 13.338C14.136 13.5276 13.9092 13.7088 13.7292 13.8888C13.2396 14.3772 13.2012 14.8212 13.2 14.8404V15H10.8V14.7996C10.8 14.658 10.8348 13.3872 12.0312 12.1908C12.2652 11.9568 12.5556 11.7192 12.8604 11.472C13.7412 10.758 14.3196 10.2372 14.3196 9.5196C14.3057 8.91338 14.055 8.3367 13.6213 7.91294C13.1875 7.48918 12.6052 7.25201 11.9988 7.25217C11.3924 7.25232 10.8102 7.4898 10.3767 7.91378C9.94318 8.33776 9.69283 8.91458 9.6792 9.5208H7.2792C7.2792 6.918 9.3972 4.8 12 4.8C14.6028 4.8 16.7208 6.918 16.7208 9.5208C16.7208 11.4372 15.306 12.5808 14.3712 13.338Z"/>
	</symbol>
</svg>