<svg width="535" height="406" viewBox="0 0 535 406" fill="none" xmlns="http://www.w3.org/2000/svg">
<g clip-path="url(#clip0_654_78)">
<path d="M495 369.032C477.471 382.364 456.115 395.869 435.119 402.237C429.066 404.128 422.82 405.334 416.498 405.835C410.588 406.309 404.639 405.848 398.873 404.469C383.72 400.704 369.665 394.112 356.065 386.41C351.622 383.89 347.23 381.255 342.864 378.561C335.737 374.162 328.68 369.609 321.604 365.165C320.545 364.492 319.492 363.831 318.433 363.177H318.426C316.718 362.106 315.006 361.05 313.289 360.009C312.988 359.823 312.686 359.643 312.378 359.457C309.135 357.495 305.837 355.578 302.483 353.705C302.072 353.481 301.661 353.25 301.25 353.025C294.761 349.431 288.092 346.171 281.269 343.259C276.787 341.373 272.247 339.674 267.663 338.225H267.656C265.904 337.673 264.144 337.154 262.378 336.679C257.084 335.228 251.688 334.174 246.236 333.524C238.724 332.616 231.126 332.676 223.629 333.704C223.121 333.774 222.621 333.845 222.113 333.928C201.823 337.173 183.306 348.113 162.926 350.691C162.264 350.775 161.61 350.852 160.948 350.909C160.666 350.935 160.383 350.967 160.101 350.986C154.178 351.492 148.218 351.346 142.328 350.55C125.871 348.383 109.845 341.656 95.417 333.178C61.6882 313.356 34.3353 282.889 17.7053 247.606C14.8496 241.559 12.3141 235.366 10.1095 229.053C3.94541 211.548 0.550832 193.19 0.0479723 174.641C-1.5123 110.282 35.1058 45.7119 92.5982 16.6042C150.097 -12.5034 225.735 -2.87781 272.106 41.8386C300.236 68.9646 316.513 105.723 337.682 138.563C358.852 171.396 388.94 202.761 427.748 207.545C447.517 209.982 468.205 205.268 487.153 211.399C497.645 214.798 506.596 221.3 513.806 229.586C518.654 235.208 522.711 241.465 525.865 248.183C528.176 253.039 530.052 258.091 531.47 263.279C531.733 264.234 531.977 265.189 532.215 266.145C541.654 304.647 526.571 345.009 495 369.032Z" fill="#F2F2F2"/>
<path d="M179.248 299.331H118.892C109.849 299.331 102.519 306.652 102.519 315.684V315.684C102.519 324.715 109.849 332.036 118.892 332.036H179.248C188.29 332.036 195.621 324.715 195.621 315.684C195.621 306.652 188.29 299.331 179.248 299.331Z" fill="#3F3D56"/>
<path d="M160.948 323.7V350.909C154.748 351.508 148.5 351.388 142.328 350.55V323.7H160.948Z" fill="#3F3D56"/>
<path d="M223.629 333.704C223.121 333.774 222.621 333.845 222.113 333.928C201.823 337.173 183.306 348.113 162.926 350.691C162.265 350.774 161.61 350.851 160.948 350.909C160.666 350.935 160.383 350.967 160.101 350.986C155.125 346.119 150.148 340.937 145.474 335.57C142.938 332.665 140.485 329.702 138.18 326.701C132.196 318.954 127.123 310.989 123.771 303.166C124.112 299.414 121.775 290.738 120.657 284.094L120.651 284.088C120.176 281.298 119.919 278.874 120.157 277.316C121.518 268.325 128.87 269.358 131.13 260.546C133.169 258.856 135.339 257.332 137.621 255.987C138 255.763 138.385 255.538 138.783 255.314L163.311 238.384L172.686 247.567L186.953 261.547L202.414 276.688L189.29 289.93C189.29 289.93 200.257 302.557 213.079 319.39C216.521 323.911 220.097 328.74 223.629 333.704Z" fill="#2F2E41"/>
<path d="M435.119 323.7V402.237C429.066 404.128 422.82 405.334 416.498 405.835V323.7H435.119Z" fill="#3F3D56"/>
<path d="M459.197 317.287H398.841C389.798 317.287 382.468 324.608 382.468 333.639V333.639C382.468 342.671 389.798 349.992 398.841 349.992H459.197C468.24 349.992 475.57 342.671 475.57 333.639C475.57 324.608 468.24 317.287 459.197 317.287Z" fill="#3F3D56"/>
<path d="M312.378 359.457C309.135 357.495 305.837 355.578 302.483 353.705C302.072 353.481 301.661 353.25 301.25 353.025L303.459 352.083L309.418 349.524L309.476 349.498L309.54 349.716L312.378 359.457Z" fill="#FFB6B6"/>
<path d="M321.604 365.165C320.545 364.491 319.492 363.831 318.433 363.177H318.426C316.718 362.106 315.006 361.05 313.289 360.009C312.988 359.823 312.686 359.643 312.378 359.457C309.135 357.495 305.837 355.578 302.483 353.705C302.072 353.481 301.661 353.25 301.25 353.025C294.761 349.43 288.092 346.171 281.269 343.259C276.787 341.373 272.247 339.674 267.663 338.225H267.656L264.054 332.203L247.842 305.083L244.278 299.126C244.278 299.126 232.123 302.717 214.922 306.161C208.662 307.417 201.74 308.649 194.478 309.688C186.715 310.791 178.573 311.669 170.483 312.092C166.624 312.298 162.778 312.4 158.99 312.368C149.198 312.304 139.791 311.387 131.554 309.207C128.805 306.629 120.522 303.121 114.59 299.908H114.583C112.092 298.561 110.024 297.272 108.939 296.125C102.685 289.519 108.027 284.37 102.467 277.162C102.392 274.518 102.527 271.872 102.872 269.249C102.929 268.813 102.987 268.37 103.058 267.921L104.811 238.191L117.832 236.473L137.647 233.856L159.112 231.022L161.475 249.504C161.475 249.504 178.188 248.657 199.364 248.939C233.375 249.401 278.886 252.787 285.051 267.318C285.628 268.684 286.206 270.063 286.784 271.442C288.158 274.738 289.519 278.051 290.868 281.382C295.754 293.438 300.416 305.609 304.673 317.114C307.318 324.27 309.809 331.17 312.102 337.628C313.944 342.822 315.652 347.735 317.213 352.256C318.638 356.386 319.929 360.188 321.078 363.6C321.258 364.132 321.431 364.658 321.604 365.165Z" fill="#2F2E41"/>
<path d="M201.82 185.038L160.691 150.151L187.45 123.104L206.118 153.644L275.319 167.346C277.399 165.782 279.891 164.856 282.489 164.682C285.088 164.508 287.68 165.092 289.952 166.364C292.223 167.637 294.075 169.541 295.281 171.846C296.488 174.151 296.996 176.757 296.746 179.346C296.495 181.935 295.495 184.395 293.868 186.426C292.242 188.457 290.059 189.972 287.585 190.785C285.112 191.599 282.454 191.676 279.938 191.007C277.421 190.338 275.154 188.953 273.412 187.019L201.82 185.038Z" fill="#A0616A"/>
<path d="M124.342 104.302C119.589 119.746 164.857 156.579 164.857 156.579C165.36 152.871 191.026 184.842 192.772 181.947C197.735 173.718 203.196 153.377 208.925 150.777C212.202 149.29 193.406 128.625 193.406 128.625C193.406 128.625 183.817 115.956 171.158 99.8994C167.663 95.2937 163.059 91.6459 157.773 89.2956C152.487 86.9453 146.692 85.969 140.926 86.4574C140.926 86.4574 129.095 88.8584 124.342 104.302Z" fill="#3F3D56"/>
<path d="M144.357 70.113C159.72 70.113 172.175 57.6743 172.175 42.3303C172.175 26.9863 159.72 14.5475 144.357 14.5475C128.994 14.5475 116.539 26.9863 116.539 42.3303C116.539 57.6743 128.994 70.113 144.357 70.113Z" fill="#A0616A"/>
<path d="M158.266 88.4755C164.259 92.0339 167.844 98.5719 169.902 105.225C173.712 117.542 176.005 130.277 176.731 143.148L178.905 181.682L205.825 263.732C182.494 283.449 94.7964 268.213 94.7964 268.213C94.7964 268.213 92.1043 267.317 94.7964 264.628C97.4884 261.94 100.109 264.322 97.4171 261.633C94.7251 258.944 96.5808 261.94 97.4782 259.251C98.3756 256.562 97.4782 258.355 96.5809 257.458C95.6835 256.562 103.528 248.496 103.528 248.496L96.3489 201.399L87.3755 106.4C98.1437 92.9566 119.8 85.0318 119.8 85.0318L125.396 74.9723L153.374 77.2077L158.266 88.4755Z" fill="#3F3D56"/>
<path d="M167.288 27.5696C169.45 29.1802 171.052 31.4274 171.868 33.9949C172.182 29.799 172.202 25.5864 171.928 21.3877C171.6 18.4373 169.52 17.7737 167.112 17.0047C164.937 16.3099 162.478 15.5251 161.816 12.661C153.071 4.16501 137.849 4.59342 127.432 7.55694C121.7 9.18771 118.401 11.2829 118.106 12.5103L118.045 12.763L117.812 12.8792C113.393 15.0858 112.533 22.0536 112.59 27.5101C112.698 37.7907 116.252 49.4669 118.254 50.4154C118.36 50.4656 118.387 50.4459 118.433 50.4078C121.448 48.0015 125.126 50.5906 126.742 51.9981C127.696 45.6086 130.765 39.7224 135.461 35.2797C140.157 30.837 146.208 28.094 152.648 27.4889C154.751 27.2859 156.837 26.9365 158.892 26.4432C159.934 26.174 161.005 26.0336 162.081 26.0252C163.934 25.9971 165.751 26.536 167.288 27.5696Z" fill="#2F2E41"/>
<path d="M132.237 226.895L123.727 222.543C123.271 222.218 122.948 221.741 122.815 221.198C122.682 220.655 122.75 220.082 123.005 219.584C123.26 219.086 123.686 218.697 124.205 218.487C124.724 218.277 125.301 218.261 125.831 218.44L134.34 222.793C134.796 223.118 135.12 223.595 135.253 224.138C135.385 224.681 135.318 225.254 135.063 225.752C134.808 226.249 134.382 226.639 133.863 226.849C133.344 227.059 132.767 227.075 132.237 226.896L132.237 226.895Z" fill="#EA4040"/>
<path d="M103.598 215.234L89.5999 163.187L127.007 156.115L124.995 191.84L174.145 242.384C176.747 242.278 179.324 242.93 181.561 244.261C183.798 245.592 185.6 247.545 186.745 249.881C187.89 252.216 188.331 254.835 188.012 257.416C187.693 259.997 186.629 262.43 184.95 264.418C183.271 266.406 181.049 267.863 178.555 268.612C176.061 269.36 173.403 269.368 170.904 268.633C168.406 267.899 166.176 266.455 164.485 264.476C162.795 262.498 161.717 260.071 161.384 257.491L103.598 215.234Z" fill="#A0616A"/>
<path d="M85.7719 104.831C73.0746 114.842 89.3716 170.841 89.3716 170.841C91.8948 168.075 94.8269 208.949 97.911 207.557C106.676 203.601 122.742 189.961 128.936 191.073C132.478 191.709 128.767 164.037 128.767 164.037C128.767 164.037 128.084 148.171 126.801 127.774C126.546 122.001 124.832 116.386 121.819 111.453C118.806 106.519 114.593 102.427 109.571 99.5571C109.571 99.5571 98.4692 94.8193 85.7719 104.831Z" fill="#3F3D56"/>
<path d="M525.865 248.183L17.7055 247.606C14.8497 241.559 12.3143 235.366 10.1096 229.053L513.807 229.586C518.654 235.208 522.711 241.465 525.865 248.183Z" fill="#3F3D56"/>
<path d="M364.014 382.736C361.388 384.005 358.739 385.23 356.065 386.41C351.622 383.89 347.23 381.254 342.864 378.561L359.057 371.456L364.014 382.736Z" fill="#FFB6B6"/>
<path d="M482.081 294.368C479.449 297.895 476.732 301.351 473.933 304.737C471.352 307.86 468.702 310.923 465.984 313.927C464.86 315.171 463.724 316.408 462.562 317.633C460.424 319.922 458.238 322.173 456.006 324.386C451.987 325.649 443.845 327.874 435.119 329.952C428.769 331.459 422.11 332.889 416.498 333.8C413.357 334.363 410.179 334.702 406.989 334.813C403.201 334.845 399.355 334.742 395.496 334.537C391.142 334.306 386.783 333.947 382.474 333.486C371.27 332.312 360.419 330.484 351.057 328.605C347.628 327.926 344.405 327.233 341.439 326.56C335.82 325.296 331.12 324.116 327.717 323.219C323.884 322.218 321.701 321.571 321.701 321.571L312.102 337.628L307.119 345.958L303.459 352.083L302.483 353.705C302.072 353.481 301.661 353.25 301.251 353.025C294.762 349.43 288.092 346.171 281.269 343.259C276.787 341.373 272.248 339.674 267.663 338.225H267.657C265.904 337.673 264.144 337.154 262.379 336.679C262.931 335.198 263.49 333.706 264.055 332.203C265.108 329.401 266.182 326.573 267.278 323.719C269.647 317.537 272.1 311.265 274.623 305.026C276.691 299.902 278.797 294.797 280.929 289.763C281.911 287.442 283.908 285.402 286.701 283.613C288.036 282.773 289.428 282.027 290.868 281.382C298.862 277.746 310.638 275.379 323.614 273.859C324.687 273.738 325.765 273.616 326.851 273.5C337.593 272.372 348.99 271.788 359.648 271.519C364.984 271.384 370.134 271.333 374.924 271.326C376.471 271.326 377.976 271.331 379.437 271.339H379.444C383.393 271.358 387.027 271.416 390.224 271.48C390.847 271.493 391.451 271.512 392.042 271.525H392.048C392.446 271.532 392.838 271.544 393.223 271.551C400.215 271.73 404.504 271.948 404.504 271.948L406.167 258.918L406.508 256.288L406.829 253.787V253.781L406.867 253.467L407.131 253.46L411.754 253.371L450.613 252.614L471.84 252.197L468.475 266.6L462.921 290.366C463.486 294.124 482.274 291.18 482.081 294.368Z" fill="#2F2E41"/>
<path d="M368.804 380.363C367.218 381.171 365.62 381.966 364.014 382.736C361.388 384.006 358.738 385.23 356.065 386.41C351.622 383.89 347.23 381.254 342.864 378.561C335.737 374.162 328.68 369.609 321.605 365.165C320.545 364.491 319.492 363.831 318.433 363.177H318.426C315.511 358.855 312.538 354.353 309.54 349.716C309.495 349.652 309.456 349.588 309.418 349.524C308.647 348.344 307.881 347.156 307.119 345.958C302.323 338.455 297.501 330.632 292.82 322.642L304.673 317.114L326.709 306.84L330.51 305.071L341.438 326.56L351.185 345.728L353.356 349.992L368.804 380.363Z" fill="#2F2E41"/>
<path d="M372.125 277.193L428.308 223.079L443.88 179.043L420.911 169.067C409.113 180.355 396.36 215.512 396.36 215.512L357.698 264.636C357.397 264.739 357.096 264.849 356.8 264.98C355.058 265.747 353.544 266.949 352.404 268.471C351.264 269.993 350.537 271.783 350.292 273.668C350.047 275.553 350.293 277.469 351.006 279.231C351.719 280.994 352.876 282.542 354.363 283.728C355.851 284.913 357.62 285.695 359.498 285.999C361.377 286.302 363.302 286.116 365.088 285.459C366.874 284.802 368.46 283.696 369.693 282.248C370.925 280.8 371.763 279.059 372.125 277.193Z" fill="#FFB8B8"/>
<path d="M414.448 173.984L443.583 183.222L443.693 183.204C454.537 181.389 463.535 163.701 469.173 149.181C471.029 144.392 470.994 139.078 469.077 134.313C467.159 129.549 463.502 125.689 458.844 123.514C455.397 121.933 451.576 121.347 447.813 121.821C444.05 122.295 440.495 123.811 437.549 126.198L422.588 138.407L414.448 173.984Z" fill="#EA4040"/>
<path d="M481.964 295.017L482.134 294.791C491.225 282.75 478.792 252.933 476.912 248.608L485.364 246.108L483.891 230.035L483.182 222.868L489.753 216.635L489.775 216.476L494.295 184.353L500.208 163.092C502.437 155.054 502.484 146.569 500.345 138.507C498.205 130.446 493.956 123.098 488.034 117.218L475.945 105.231L461.462 82.5894L437.179 81.9633L428.447 97.4559C420.326 99.1111 413.044 103.559 407.87 110.025C402.695 116.491 399.956 124.565 400.129 132.841L400.951 174.085L392.238 225.187L391.993 234.469L383.441 243.482L385.022 252.595L378.625 255.14L375.495 268.088C374.299 269.582 366.405 279.548 366.333 282.326C366.323 282.743 366.62 283.154 367.27 283.618C372.38 287.27 400.94 295.181 413.793 290.425C427.485 285.363 481.145 294.87 481.685 294.967L481.964 295.017Z" fill="#EA4040"/>
<path d="M447.2 75.0226C464.967 75.0226 479.37 60.6373 479.37 42.8922C479.37 25.1471 464.967 10.7618 447.2 10.7618C429.432 10.7618 415.029 25.1471 415.029 42.8922C415.029 60.6373 429.432 75.0226 447.2 75.0226Z" fill="#FFB8B8"/>
<path d="M443.275 75.4525C448.257 75.5301 453.236 75.1825 458.159 74.4136C463.038 73.4226 473.954 65.4336 476.997 60.6262C479.258 57.0544 480.703 51.4767 481.518 47.4268C482.615 42.0675 482.574 36.5378 481.395 31.1957C480.217 25.8536 477.928 20.8183 474.677 16.4158C473.428 14.5743 471.704 13.1043 469.686 12.1613C469.508 12.0915 469.324 12.0296 469.138 11.9767C466.198 11.2043 463.557 9.57208 461.554 7.28965C461.165 6.828 460.744 6.3949 460.293 5.99371C458.028 4.08488 455.343 2.73843 452.458 2.06442C447.8 0.819435 441.059 2.05525 432.423 5.74109C428.085 7.59293 423.34 6.92274 419.689 6.13191C419.485 6.09242 419.273 6.10715 419.076 6.17466C418.878 6.24216 418.702 6.36008 418.565 6.51669C417.012 7.97284 414.964 8.78794 412.834 8.79814C411.53 8.85536 410.161 10.6596 408.506 13.0125C408.131 13.5465 407.693 14.1699 407.377 14.549L407.334 13.8206L406.596 14.6332C405.436 15.9103 404.618 17.4598 404.219 19.1375C403.82 20.8152 403.853 22.5665 404.314 24.2282C404.775 25.8899 405.65 27.4081 406.856 28.6414C408.063 29.8747 409.563 30.7829 411.215 31.2815C412.528 31.6302 413.873 31.8442 415.229 31.9202C416.05 31.994 416.899 32.0703 417.714 32.2114C420.327 32.7458 422.756 33.9479 424.766 35.7001C426.775 37.4524 428.294 39.695 429.177 42.209C429.385 42.7902 429.725 43.3156 430.169 43.7449C430.613 44.1741 431.15 44.4957 431.739 44.6847C432.327 44.8738 432.951 44.9252 433.563 44.8351C434.174 44.745 434.757 44.5158 435.266 44.1651C436.114 43.5055 437.109 43.0606 438.167 42.8683C439.224 42.6759 440.313 42.7419 441.339 43.0606C442.226 43.5532 442.917 44.3355 443.295 45.2762C443.754 46.3243 444.516 47.2118 445.483 47.8257C448.789 49.5284 449.017 57.0711 447.83 63.3589C446.685 69.4198 444.422 73.8043 442.327 74.021C440.714 74.1876 440.53 74.3021 440.413 74.587L440.309 74.842L440.49 75.0806C441.381 75.4031 442.331 75.53 443.275 75.4525Z" fill="#2F2E41"/>
<path d="M422.437 164.27L410.033 139.571C392.028 140.799 356.293 161.591 356.293 161.591L288.683 175.908C286.68 175.139 284.509 174.91 282.39 175.245C280.271 175.58 278.277 176.467 276.61 177.816C274.943 179.166 273.661 180.93 272.893 182.931C272.126 184.932 271.9 187.1 272.238 189.217C272.576 191.333 273.466 193.323 274.819 194.986C276.172 196.65 277.94 197.928 279.945 198.692C281.949 199.456 284.12 199.679 286.239 199.339C288.357 198.999 290.349 198.107 292.013 196.754L378.018 190.597L422.437 164.27Z" fill="#FFB8B8"/>
<path d="M417.434 168.326L449.829 144.281L455.536 123.743C456.641 119.707 456.595 115.442 455.401 111.431C454.207 107.42 451.914 103.823 448.78 101.045C444.507 97.3086 438.973 95.3319 433.296 95.5148C427.62 95.6977 422.225 98.0266 418.202 102.031C406.011 114.184 392.106 131.138 395.093 142.895L395.123 143.014L417.434 168.326Z" fill="#EA4040"/>
<path d="M377.331 232.638H290.65V244.181H377.331V232.638Z" fill="white"/>
<path d="M155.811 232.638H69.1299V244.181H155.811V232.638Z" fill="white"/>
<path d="M165.933 177.128V232.088C165.934 232.788 166.213 233.46 166.709 233.955C167.204 234.45 167.877 234.729 168.578 234.729H250.126C250.827 234.729 251.5 234.45 251.995 233.955C252.491 233.46 252.77 232.788 252.771 232.088V177.128C252.769 176.428 252.49 175.757 251.994 175.263C251.498 174.768 250.827 174.49 250.126 174.489H168.578C167.877 174.49 167.206 174.768 166.71 175.263C166.214 175.757 165.935 176.428 165.933 177.128Z" fill="#3F3D56"/>
<path d="M167.846 177.812V231.41C167.847 231.784 167.996 232.143 168.261 232.407C168.526 232.672 168.885 232.821 169.26 232.822H249.447C249.822 232.821 250.181 232.672 250.446 232.407C250.711 232.143 250.86 231.784 250.861 231.41V177.812C250.861 177.437 250.712 177.078 250.447 176.812C250.182 176.547 249.822 176.398 249.447 176.397H169.26C168.885 176.398 168.525 176.547 168.26 176.812C167.995 177.078 167.846 177.437 167.846 177.812Z" fill="#EA4040"/>
<path d="M164.228 242.807C164.377 242.994 164.567 243.145 164.783 243.248C165 243.351 165.236 243.404 165.476 243.403H252.794C253.033 243.403 253.269 243.349 253.484 243.246C253.7 243.144 253.89 242.994 254.04 242.809C254.191 242.624 254.298 242.407 254.354 242.176C254.41 241.944 254.414 241.702 254.365 241.469L253.009 235.039C252.953 234.777 252.832 234.533 252.658 234.329C252.483 234.125 252.26 233.969 252.009 233.873C251.827 233.802 251.634 233.765 251.439 233.766H166.826C166.631 233.765 166.437 233.802 166.256 233.873C166.005 233.969 165.782 234.125 165.607 234.329C165.432 234.533 165.311 234.777 165.255 235.039L163.9 241.469C163.852 241.702 163.856 241.943 163.913 242.175C163.97 242.406 164.077 242.622 164.228 242.807Z" fill="#2F2E41"/>
<path d="M248.443 236.535H250.505C250.678 236.535 250.819 236.395 250.819 236.222V235.237C250.819 235.064 250.678 234.924 250.505 234.924H248.443C248.27 234.924 248.129 235.064 248.129 235.237V236.222C248.129 236.395 248.27 236.535 248.443 236.535Z" fill="#3F3D56"/>
<path d="M243.064 236.535H245.126C245.3 236.535 245.44 236.395 245.44 236.222V235.237C245.44 235.064 245.3 234.924 245.126 234.924H243.064C242.891 234.924 242.751 235.064 242.751 235.237V236.222C242.751 236.395 242.891 236.535 243.064 236.535Z" fill="#3F3D56"/>
<path d="M237.685 236.535H239.748C239.921 236.535 240.061 236.395 240.061 236.222V235.237C240.061 235.064 239.921 234.924 239.748 234.924H237.685C237.512 234.924 237.372 235.064 237.372 235.237V236.222C237.372 236.395 237.512 236.535 237.685 236.535Z" fill="#3F3D56"/>
<path d="M232.306 236.535H234.369C234.542 236.535 234.682 236.395 234.682 236.222V235.237C234.682 235.064 234.542 234.924 234.369 234.924H232.306C232.133 234.924 231.993 235.064 231.993 235.237V236.222C231.993 236.395 232.133 236.535 232.306 236.535Z" fill="#3F3D56"/>
<path d="M226.928 236.535H228.99C229.163 236.535 229.304 236.395 229.304 236.222V235.237C229.304 235.064 229.163 234.924 228.99 234.924H226.928C226.755 234.924 226.614 235.064 226.614 235.237V236.222C226.614 236.395 226.755 236.535 226.928 236.535Z" fill="#3F3D56"/>
<path d="M221.549 236.535H223.611C223.784 236.535 223.925 236.395 223.925 236.222V235.237C223.925 235.064 223.784 234.924 223.611 234.924H221.549C221.376 234.924 221.235 235.064 221.235 235.237V236.222C221.235 236.395 221.376 236.535 221.549 236.535Z" fill="#3F3D56"/>
<path d="M216.17 236.535H218.233C218.406 236.535 218.546 236.395 218.546 236.222V235.237C218.546 235.064 218.406 234.924 218.233 234.924H216.17C215.997 234.924 215.857 235.064 215.857 235.237V236.222C215.857 236.395 215.997 236.535 216.17 236.535Z" fill="#3F3D56"/>
<path d="M210.792 236.535H212.854C213.027 236.535 213.167 236.395 213.167 236.222V235.237C213.167 235.064 213.027 234.924 212.854 234.924H210.792C210.618 234.924 210.478 235.064 210.478 235.237V236.222C210.478 236.395 210.618 236.535 210.792 236.535Z" fill="#3F3D56"/>
<path d="M205.413 236.535H207.475C207.648 236.535 207.789 236.395 207.789 236.222V235.237C207.789 235.064 207.648 234.924 207.475 234.924H205.413C205.24 234.924 205.099 235.064 205.099 235.237V236.222C205.099 236.395 205.24 236.535 205.413 236.535Z" fill="#3F3D56"/>
<path d="M200.034 236.535H202.096C202.27 236.535 202.41 236.395 202.41 236.222V235.237C202.41 235.064 202.27 234.924 202.096 234.924H200.034C199.861 234.924 199.721 235.064 199.721 235.237V236.222C199.721 236.395 199.861 236.535 200.034 236.535Z" fill="#3F3D56"/>
<path d="M194.655 236.535H196.718C196.891 236.535 197.031 236.395 197.031 236.222V235.237C197.031 235.064 196.891 234.924 196.718 234.924H194.655C194.482 234.924 194.342 235.064 194.342 235.237V236.222C194.342 236.395 194.482 236.535 194.655 236.535Z" fill="#3F3D56"/>
<path d="M189.276 236.535H191.339C191.512 236.535 191.652 236.395 191.652 236.222V235.237C191.652 235.064 191.512 234.924 191.339 234.924H189.276C189.103 234.924 188.963 235.064 188.963 235.237V236.222C188.963 236.395 189.103 236.535 189.276 236.535Z" fill="#3F3D56"/>
<path d="M183.898 236.535H185.96C186.133 236.535 186.274 236.395 186.274 236.222V235.237C186.274 235.064 186.133 234.924 185.96 234.924H183.898C183.725 234.924 183.584 235.064 183.584 235.237V236.222C183.584 236.395 183.725 236.535 183.898 236.535Z" fill="#3F3D56"/>
<path d="M178.519 236.535H180.582C180.755 236.535 180.895 236.395 180.895 236.222V235.237C180.895 235.064 180.755 234.924 180.582 234.924H178.519C178.346 234.924 178.206 235.064 178.206 235.237V236.222C178.206 236.395 178.346 236.535 178.519 236.535Z" fill="#3F3D56"/>
<path d="M173.14 236.535H175.203C175.376 236.535 175.516 236.395 175.516 236.222V235.237C175.516 235.064 175.376 234.924 175.203 234.924H173.14C172.967 234.924 172.827 235.064 172.827 235.237V236.222C172.827 236.395 172.967 236.535 173.14 236.535Z" fill="#3F3D56"/>
<path d="M167.762 236.535H169.824C169.997 236.535 170.137 236.395 170.137 236.222V235.237C170.137 235.064 169.997 234.924 169.824 234.924H167.762C167.588 234.924 167.448 235.064 167.448 235.237V236.222C167.448 236.395 167.588 236.535 167.762 236.535Z" fill="#3F3D56"/>
<path d="M248.506 239.221H250.569C250.742 239.221 250.882 239.081 250.882 238.908V237.923C250.882 237.75 250.742 237.61 250.569 237.61H248.506C248.333 237.61 248.193 237.75 248.193 237.923V238.908C248.193 239.081 248.333 239.221 248.506 239.221Z" fill="#3F3D56"/>
<path d="M243.127 239.221H245.19C245.363 239.221 245.503 239.081 245.503 238.908V237.923C245.503 237.75 245.363 237.61 245.19 237.61H243.127C242.954 237.61 242.814 237.75 242.814 237.923V238.908C242.814 239.081 242.954 239.221 243.127 239.221Z" fill="#3F3D56"/>
<path d="M237.749 239.221H239.811C239.984 239.221 240.125 239.081 240.125 238.908V237.923C240.125 237.75 239.984 237.61 239.811 237.61H237.749C237.576 237.61 237.435 237.75 237.435 237.923V238.908C237.435 239.081 237.576 239.221 237.749 239.221Z" fill="#3F3D56"/>
<path d="M232.37 239.221H234.432C234.606 239.221 234.746 239.081 234.746 238.908V237.923C234.746 237.75 234.606 237.61 234.432 237.61H232.37C232.197 237.61 232.056 237.75 232.056 237.923V238.908C232.056 239.081 232.197 239.221 232.37 239.221Z" fill="#3F3D56"/>
<path d="M226.991 239.221H229.054C229.227 239.221 229.367 239.081 229.367 238.908V237.923C229.367 237.75 229.227 237.61 229.054 237.61H226.991C226.818 237.61 226.678 237.75 226.678 237.923V238.908C226.678 239.081 226.818 239.221 226.991 239.221Z" fill="#3F3D56"/>
<path d="M221.613 239.221H223.675C223.848 239.221 223.989 239.081 223.989 238.908V237.923C223.989 237.75 223.848 237.61 223.675 237.61H221.613C221.439 237.61 221.299 237.75 221.299 237.923V238.908C221.299 239.081 221.439 239.221 221.613 239.221Z" fill="#3F3D56"/>
<path d="M216.234 239.221H218.296C218.469 239.221 218.61 239.081 218.61 238.908V237.923C218.61 237.75 218.469 237.61 218.296 237.61H216.234C216.061 237.61 215.92 237.75 215.92 237.923V238.908C215.92 239.081 216.061 239.221 216.234 239.221Z" fill="#3F3D56"/>
<path d="M210.855 239.221H212.917C213.091 239.221 213.231 239.081 213.231 238.908V237.923C213.231 237.75 213.091 237.61 212.917 237.61H210.855C210.682 237.61 210.542 237.75 210.542 237.923V238.908C210.542 239.081 210.682 239.221 210.855 239.221Z" fill="#3F3D56"/>
<path d="M205.476 239.221H207.539C207.712 239.221 207.852 239.081 207.852 238.908V237.923C207.852 237.75 207.712 237.61 207.539 237.61H205.476C205.303 237.61 205.163 237.75 205.163 237.923V238.908C205.163 239.081 205.303 239.221 205.476 239.221Z" fill="#3F3D56"/>
<path d="M200.098 239.221H202.16C202.333 239.221 202.474 239.081 202.474 238.908V237.923C202.474 237.75 202.333 237.61 202.16 237.61H200.098C199.925 237.61 199.784 237.75 199.784 237.923V238.908C199.784 239.081 199.925 239.221 200.098 239.221Z" fill="#3F3D56"/>
<path d="M194.719 239.221H196.781C196.954 239.221 197.095 239.081 197.095 238.908V237.923C197.095 237.75 196.954 237.61 196.781 237.61H194.719C194.546 237.61 194.405 237.75 194.405 237.923V238.908C194.405 239.081 194.546 239.221 194.719 239.221Z" fill="#3F3D56"/>
<path d="M189.34 239.221H191.403C191.576 239.221 191.716 239.081 191.716 238.908V237.923C191.716 237.75 191.576 237.61 191.403 237.61H189.34C189.167 237.61 189.027 237.75 189.027 237.923V238.908C189.027 239.081 189.167 239.221 189.34 239.221Z" fill="#3F3D56"/>
<path d="M183.961 239.221H186.024C186.197 239.221 186.337 239.081 186.337 238.908V237.923C186.337 237.75 186.197 237.61 186.024 237.61H183.961C183.788 237.61 183.648 237.75 183.648 237.923V238.908C183.648 239.081 183.788 239.221 183.961 239.221Z" fill="#3F3D56"/>
<path d="M178.583 239.221H180.645C180.818 239.221 180.958 239.081 180.958 238.908V237.923C180.958 237.75 180.818 237.61 180.645 237.61H178.583C178.409 237.61 178.269 237.75 178.269 237.923V238.908C178.269 239.081 178.409 239.221 178.583 239.221Z" fill="#3F3D56"/>
<path d="M173.204 239.221H175.266C175.439 239.221 175.58 239.081 175.58 238.908V237.923C175.58 237.75 175.439 237.61 175.266 237.61H173.204C173.031 237.61 172.89 237.75 172.89 237.923V238.908C172.89 239.081 173.031 239.221 173.204 239.221Z" fill="#3F3D56"/>
<path d="M167.825 239.221H169.888C170.061 239.221 170.201 239.081 170.201 238.908V237.923C170.201 237.75 170.061 237.61 169.888 237.61H167.825C167.652 237.61 167.512 237.75 167.512 237.923V238.908C167.512 239.081 167.652 239.221 167.825 239.221Z" fill="#3F3D56"/>
<path d="M203.863 242.444H224.751C224.924 242.444 225.064 242.304 225.064 242.131V241.146C225.064 240.973 224.924 240.833 224.751 240.833H203.863C203.69 240.833 203.549 240.973 203.549 241.146V242.131C203.549 242.304 203.69 242.444 203.863 242.444Z" fill="#3F3D56"/>
</g>
<defs>
<clipPath id="clip0_654_78">
<rect width="535" height="406" fill="white"/>
</clipPath>
</defs>
</svg>
