<svg width="45" height="45" viewBox="0 0 45 45" fill="none" xmlns="http://www.w3.org/2000/svg">
<path d="M25.1439 22.5001L36.9564 10.7064C37.3094 10.3533 37.5078 9.87442 37.5078 9.3751C37.5078 8.87579 37.3094 8.39692 36.9564 8.04385C36.6033 7.69078 36.1244 7.49243 35.6251 7.49243C35.1258 7.49243 34.647 7.69078 34.2939 8.04385L22.5001 19.8564L10.7064 8.04385C10.3533 7.69078 9.87445 7.49243 9.37513 7.49243C8.87581 7.49243 8.39695 7.69078 8.04388 8.04385C7.69081 8.39692 7.49246 8.87579 7.49246 9.3751C7.49246 9.87442 7.69081 10.3533 8.04388 10.7064L19.8564 22.5001L8.04388 34.2939C7.86814 34.4682 7.72865 34.6755 7.63346 34.904C7.53827 35.1325 7.48926 35.3776 7.48926 35.6251C7.48926 35.8726 7.53827 36.1177 7.63346 36.3462C7.72865 36.5747 7.86814 36.782 8.04388 36.9564C8.21819 37.1321 8.42556 37.2716 8.65405 37.3668C8.88253 37.462 9.12761 37.511 9.37513 37.511C9.62265 37.511 9.86773 37.462 10.0962 37.3668C10.3247 37.2716 10.5321 37.1321 10.7064 36.9564L22.5001 25.1439L34.2939 36.9564C34.4682 37.1321 34.6756 37.2716 34.904 37.3668C35.1325 37.462 35.3776 37.511 35.6251 37.511C35.8727 37.511 36.1177 37.462 36.3462 37.3668C36.5747 37.2716 36.7821 37.1321 36.9564 36.9564C37.1321 36.782 37.2716 36.5747 37.3668 36.3462C37.462 36.1177 37.511 35.8726 37.511 35.6251C37.511 35.3776 37.462 35.1325 37.3668 34.904C37.2716 34.6755 37.1321 34.4682 36.9564 34.2939L25.1439 22.5001Z" fill="white"/>
</svg>
