<svg width="45" height="45" viewBox="0 0 45 45" fill="none" xmlns="http://www.w3.org/2000/svg">
<path d="M27.6 16.4812L19.5563 24.5438L16.4625 21.45C16.2944 21.2537 16.0876 21.0943 15.855 20.9818C15.6223 20.8692 15.369 20.806 15.1107 20.796C14.8525 20.786 14.595 20.8295 14.3544 20.9238C14.1138 21.0181 13.8953 21.1611 13.7125 21.3438C13.5298 21.5265 13.3868 21.745 13.2926 21.9856C13.1983 22.2263 13.1548 22.4838 13.1648 22.742C13.1747 23.0002 13.238 23.2536 13.3505 23.4862C13.4631 23.7188 13.6225 23.9257 13.8188 24.0938L18.225 28.5187C18.4002 28.6925 18.608 28.83 18.8364 28.9233C19.0649 29.0166 19.3095 29.0639 19.5563 29.0625C20.0481 29.0604 20.5195 28.8651 20.8688 28.5187L30.2438 19.1438C30.4195 18.9694 30.559 18.7621 30.6542 18.5336C30.7494 18.3051 30.7984 18.06 30.7984 17.8125C30.7984 17.565 30.7494 17.3199 30.6542 17.0914C30.559 16.8629 30.4195 16.6556 30.2438 16.4812C29.8925 16.132 29.4172 15.936 28.9219 15.936C28.4265 15.936 27.9513 16.132 27.6 16.4812ZM22.5 3.75C18.7916 3.75 15.1665 4.84967 12.0831 6.90994C8.99964 8.97022 6.59641 11.8986 5.17727 15.3247C3.75812 18.7508 3.38681 22.5208 4.11028 26.1579C4.83376 29.7951 6.61952 33.136 9.24176 35.7583C11.864 38.3805 15.2049 40.1663 18.8421 40.8897C22.4792 41.6132 26.2492 41.2419 29.6753 39.8227C33.1014 38.4036 36.0298 36.0004 38.0901 32.9169C40.1503 29.8335 41.25 26.2084 41.25 22.5C41.25 20.0377 40.765 17.5995 39.8228 15.3247C38.8805 13.0498 37.4994 10.9828 35.7583 9.24175C34.0172 7.50065 31.9502 6.11953 29.6753 5.17726C27.4005 4.23498 24.9623 3.75 22.5 3.75ZM22.5 37.5C19.5333 37.5 16.6332 36.6203 14.1665 34.972C11.6997 33.3238 9.77713 30.9811 8.64182 28.2403C7.5065 25.4994 7.20945 22.4834 7.78823 19.5736C8.36701 16.6639 9.79562 13.9912 11.8934 11.8934C13.9912 9.79561 16.6639 8.367 19.5737 7.78822C22.4834 7.20944 25.4994 7.50649 28.2403 8.64181C30.9812 9.77712 33.3238 11.6997 34.972 14.1664C36.6203 16.6332 37.5 19.5333 37.5 22.5C37.5 26.4782 35.9197 30.2936 33.1066 33.1066C30.2936 35.9196 26.4783 37.5 22.5 37.5Z" fill="white"/>
</svg>
