<svg width="600" height="436" viewBox="0 0 600 436" fill="none" xmlns="http://www.w3.org/2000/svg">
<g clip-path="url(#clip0_184_4)">
<path d="M349.499 76.8616C360.744 76.8616 369.86 67.7537 369.86 56.5184C369.86 45.2832 360.744 36.1753 349.499 36.1753C338.254 36.1753 329.138 45.2832 329.138 56.5184C329.138 67.7537 338.254 76.8616 349.499 76.8616Z" fill="#F2F2F2"/>
<path d="M507.446 378.777C537.71 355.746 552.165 317.044 543.116 280.125C542.891 279.208 542.653 278.293 542.404 277.38C536.404 255.465 521.562 234.637 499.929 227.635C481.765 221.755 461.938 226.276 442.989 223.938C405.79 219.348 376.95 189.277 356.658 157.791C336.366 126.305 320.771 91.0618 293.806 65.0501C249.361 22.1742 176.858 12.943 121.752 40.852C66.6454 68.7611 31.5432 130.68 33.0402 192.389C34.5373 254.099 71.2037 313.098 124.452 344.4C144.014 355.899 166.638 364.046 189.155 361.195C208.692 358.722 226.443 348.233 245.888 345.12C276.46 340.224 306.838 354.034 333.28 370.128C359.722 386.221 385.264 405.297 415.312 412.758C444.489 420.002 480.636 399.179 507.446 378.777Z" fill="#F2F2F2"/>
<path d="M463.963 42.148C463.3 41.7061 462.629 41.2871 461.965 40.8604C442.788 28.6059 422.232 18.6505 400.724 11.1998L395.737 79.938H364.121V1.1657C362.131 0.754274 360.125 0.365709 358.119 0V79.938H320.548C299.864 79.938 280.028 71.7287 265.403 57.1161C250.777 42.5034 242.561 22.6845 242.561 2.01911V2.01904C240.547 2.45332 238.55 2.91808 236.552 3.41331V79.938H205.95L201.199 14.3922C179.096 22.8616 158.112 33.9994 138.715 47.5575C138.379 47.786 138.044 48.0222 137.716 48.2508C136.031 49.4317 134.368 50.6355 132.713 51.8546V314.091H222.902L221.308 292.034L212.538 170.931H389.141L380.371 292.034L378.777 314.091H467.967V44.7994C466.64 43.9004 465.305 43.0166 463.963 42.148ZM236.552 150.931H211.09L206.385 85.9417H236.552V150.931ZM358.119 150.931H315.355V149.644C315.355 149.025 315.233 148.412 314.996 147.84C314.758 147.268 314.41 146.749 313.972 146.312C313.534 145.874 313.013 145.528 312.44 145.291C311.868 145.055 311.254 144.934 310.635 144.935H292.043C291.424 144.935 290.812 145.057 290.24 145.293C289.668 145.53 289.148 145.876 288.71 146.314C288.273 146.751 287.926 147.27 287.689 147.842C287.452 148.413 287.33 149.025 287.331 149.644V150.931H242.561V85.9417H358.119V150.931ZM364.121 150.931V85.9417H395.302L390.597 150.931H364.121Z" fill="#3F3D56"/>
<path d="M0 330.884C6.62458 338.726 13.7898 346.097 21.4433 352.941L578.557 353.703C586.21 346.858 593.375 339.488 600 331.646L0 330.884Z" fill="#3F3D56"/>
<path d="M377.797 260.256V325.554C377.797 326.386 378.128 327.184 378.717 327.772C379.306 328.361 380.105 328.691 380.938 328.692H477.787C478.619 328.691 479.418 328.361 480.007 327.772C480.596 327.184 480.927 326.386 480.928 325.554V260.256C480.926 259.425 480.594 258.628 480.005 258.041C479.417 257.453 478.619 257.123 477.787 257.122H380.938C380.106 257.123 379.308 257.453 378.719 258.041C378.13 258.628 377.799 259.425 377.797 260.256Z" fill="#3F3D56"/>
<path d="M380.069 261.069V324.748C380.069 325.193 380.246 325.619 380.561 325.934C380.876 326.248 381.302 326.425 381.747 326.426H476.98C477.425 326.425 477.852 326.248 478.167 325.934C478.481 325.619 478.658 325.193 478.659 324.748V261.069C478.659 260.624 478.482 260.197 478.168 259.882C477.853 259.567 477.426 259.389 476.98 259.388H381.747C381.302 259.389 380.875 259.567 380.56 259.882C380.245 260.197 380.069 260.624 380.069 261.069Z" fill="#EA4040"/>
<path d="M375.771 338.289C375.949 338.511 376.174 338.69 376.431 338.813C376.687 338.935 376.969 338.999 377.253 338.997H480.956C481.239 338.997 481.519 338.933 481.775 338.811C482.031 338.689 482.257 338.512 482.435 338.292C482.614 338.071 482.741 337.814 482.808 337.539C482.875 337.264 482.879 336.977 482.821 336.699L481.211 329.06C481.144 328.748 481.001 328.458 480.793 328.216C480.586 327.974 480.321 327.788 480.023 327.675C479.807 327.59 479.577 327.547 479.346 327.547H378.857C378.625 327.547 378.395 327.59 378.179 327.675C377.881 327.788 377.617 327.974 377.409 328.216C377.202 328.458 377.058 328.748 376.991 329.06L375.381 336.699C375.324 336.977 375.329 337.263 375.397 337.538C375.464 337.813 375.592 338.069 375.771 338.289Z" fill="#2F2E41"/>
<path d="M475.788 330.838H478.237C478.443 330.838 478.609 330.671 478.609 330.466V329.295C478.609 329.089 478.443 328.923 478.237 328.923H475.788C475.582 328.923 475.415 329.089 475.415 329.295V330.466C475.415 330.671 475.582 330.838 475.788 330.838Z" fill="#3F3D56"/>
<path d="M469.4 330.838H471.849C472.055 330.838 472.221 330.671 472.221 330.466V329.295C472.221 329.089 472.055 328.923 471.849 328.923H469.4C469.194 328.923 469.027 329.089 469.027 329.295V330.466C469.027 330.671 469.194 330.838 469.4 330.838Z" fill="#3F3D56"/>
<path d="M463.012 330.838H465.461C465.667 330.838 465.833 330.671 465.833 330.466V329.295C465.833 329.089 465.667 328.923 465.461 328.923H463.012C462.806 328.923 462.639 329.089 462.639 329.295V330.466C462.639 330.671 462.806 330.838 463.012 330.838Z" fill="#3F3D56"/>
<path d="M456.624 330.838H459.073C459.279 330.838 459.445 330.671 459.445 330.466V329.295C459.445 329.089 459.279 328.923 459.073 328.923H456.624C456.418 328.923 456.251 329.089 456.251 329.295V330.466C456.251 330.671 456.418 330.838 456.624 330.838Z" fill="#3F3D56"/>
<path d="M450.236 330.838H452.685C452.891 330.838 453.057 330.671 453.057 330.466V329.295C453.057 329.089 452.891 328.923 452.685 328.923H450.236C450.03 328.923 449.863 329.089 449.863 329.295V330.466C449.863 330.671 450.03 330.838 450.236 330.838Z" fill="#3F3D56"/>
<path d="M443.848 330.838H446.297C446.503 330.838 446.669 330.671 446.669 330.466V329.295C446.669 329.089 446.503 328.923 446.297 328.923H443.848C443.642 328.923 443.475 329.089 443.475 329.295V330.466C443.475 330.671 443.642 330.838 443.848 330.838Z" fill="#3F3D56"/>
<path d="M437.46 330.838H439.909C440.115 330.838 440.281 330.671 440.281 330.466V329.295C440.281 329.089 440.115 328.923 439.909 328.923H437.46C437.254 328.923 437.088 329.089 437.088 329.295V330.466C437.088 330.671 437.254 330.838 437.46 330.838Z" fill="#3F3D56"/>
<path d="M431.072 330.838H433.521C433.727 330.838 433.894 330.671 433.894 330.466V329.295C433.894 329.089 433.727 328.923 433.521 328.923H431.072C430.866 328.923 430.7 329.089 430.7 329.295V330.466C430.7 330.671 430.866 330.838 431.072 330.838Z" fill="#3F3D56"/>
<path d="M424.684 330.838H427.133C427.339 330.838 427.505 330.671 427.505 330.466V329.295C427.505 329.089 427.339 328.923 427.133 328.923H424.684C424.478 328.923 424.311 329.089 424.311 329.295V330.466C424.311 330.671 424.478 330.838 424.684 330.838Z" fill="#3F3D56"/>
<path d="M418.296 330.838H420.745C420.951 330.838 421.117 330.671 421.117 330.466V329.295C421.117 329.089 420.951 328.923 420.745 328.923H418.296C418.09 328.923 417.923 329.089 417.923 329.295V330.466C417.923 330.671 418.09 330.838 418.296 330.838Z" fill="#3F3D56"/>
<path d="M411.908 330.838H414.357C414.563 330.838 414.729 330.671 414.729 330.466V329.295C414.729 329.089 414.563 328.923 414.357 328.923H411.908C411.702 328.923 411.536 329.089 411.536 329.295V330.466C411.536 330.671 411.702 330.838 411.908 330.838Z" fill="#3F3D56"/>
<path d="M405.52 330.838H407.969C408.175 330.838 408.342 330.671 408.342 330.466V329.295C408.342 329.089 408.175 328.923 407.969 328.923H405.52C405.314 328.923 405.148 329.089 405.148 329.295V330.466C405.148 330.671 405.314 330.838 405.52 330.838Z" fill="#3F3D56"/>
<path d="M399.132 330.838H401.581C401.787 330.838 401.954 330.671 401.954 330.466V329.295C401.954 329.089 401.787 328.923 401.581 328.923H399.132C398.926 328.923 398.76 329.089 398.76 329.295V330.466C398.76 330.671 398.926 330.838 399.132 330.838Z" fill="#3F3D56"/>
<path d="M392.744 330.838H395.193C395.399 330.838 395.566 330.671 395.566 330.466V329.295C395.566 329.089 395.399 328.923 395.193 328.923H392.744C392.538 328.923 392.372 329.089 392.372 329.295V330.466C392.372 330.671 392.538 330.838 392.744 330.838Z" fill="#3F3D56"/>
<path d="M386.356 330.838H388.805C389.011 330.838 389.178 330.671 389.178 330.466V329.295C389.178 329.089 389.011 328.923 388.805 328.923H386.356C386.15 328.923 385.984 329.089 385.984 329.295V330.466C385.984 330.671 386.15 330.838 386.356 330.838Z" fill="#3F3D56"/>
<path d="M379.968 330.838H382.417C382.623 330.838 382.79 330.671 382.79 330.466V329.295C382.79 329.089 382.623 328.923 382.417 328.923H379.968C379.762 328.923 379.596 329.089 379.596 329.295V330.466C379.596 330.671 379.762 330.838 379.968 330.838Z" fill="#3F3D56"/>
<path d="M475.863 334.029H478.313C478.518 334.029 478.685 333.862 478.685 333.657V332.486C478.685 332.281 478.518 332.114 478.313 332.114H475.863C475.657 332.114 475.491 332.281 475.491 332.486V333.657C475.491 333.862 475.657 334.029 475.863 334.029Z" fill="#3F3D56"/>
<path d="M469.475 334.029H471.925C472.13 334.029 472.297 333.862 472.297 333.657V332.486C472.297 332.281 472.13 332.114 471.925 332.114H469.475C469.27 332.114 469.103 332.281 469.103 332.486V333.657C469.103 333.862 469.27 334.029 469.475 334.029Z" fill="#3F3D56"/>
<path d="M463.087 334.029H465.537C465.742 334.029 465.909 333.862 465.909 333.657V332.486C465.909 332.281 465.742 332.114 465.537 332.114H463.087C462.882 332.114 462.715 332.281 462.715 332.486V333.657C462.715 333.862 462.882 334.029 463.087 334.029Z" fill="#3F3D56"/>
<path d="M456.699 334.029H459.148C459.354 334.029 459.521 333.862 459.521 333.657V332.486C459.521 332.281 459.354 332.114 459.148 332.114H456.699C456.493 332.114 456.327 332.281 456.327 332.486V333.657C456.327 333.862 456.493 334.029 456.699 334.029Z" fill="#3F3D56"/>
<path d="M450.311 334.029H452.761C452.966 334.029 453.133 333.862 453.133 333.657V332.486C453.133 332.281 452.966 332.114 452.761 332.114H450.311C450.106 332.114 449.939 332.281 449.939 332.486V333.657C449.939 333.862 450.106 334.029 450.311 334.029Z" fill="#3F3D56"/>
<path d="M443.923 334.029H446.373C446.578 334.029 446.745 333.862 446.745 333.657V332.486C446.745 332.281 446.578 332.114 446.373 332.114H443.923C443.718 332.114 443.551 332.281 443.551 332.486V333.657C443.551 333.862 443.718 334.029 443.923 334.029Z" fill="#3F3D56"/>
<path d="M437.535 334.029H439.985C440.19 334.029 440.357 333.862 440.357 333.657V332.486C440.357 332.281 440.19 332.114 439.985 332.114H437.535C437.33 332.114 437.163 332.281 437.163 332.486V333.657C437.163 333.862 437.33 334.029 437.535 334.029Z" fill="#3F3D56"/>
<path d="M431.147 334.029H433.597C433.802 334.029 433.969 333.862 433.969 333.657V332.486C433.969 332.281 433.802 332.114 433.597 332.114H431.147C430.942 332.114 430.775 332.281 430.775 332.486V333.657C430.775 333.862 430.942 334.029 431.147 334.029Z" fill="#3F3D56"/>
<path d="M424.759 334.029H427.209C427.414 334.029 427.581 333.862 427.581 333.657V332.486C427.581 332.281 427.414 332.114 427.209 332.114H424.759C424.554 332.114 424.387 332.281 424.387 332.486V333.657C424.387 333.862 424.554 334.029 424.759 334.029Z" fill="#3F3D56"/>
<path d="M418.371 334.029H420.821C421.026 334.029 421.193 333.862 421.193 333.657V332.486C421.193 332.281 421.026 332.114 420.821 332.114H418.371C418.166 332.114 417.999 332.281 417.999 332.486V333.657C417.999 333.862 418.166 334.029 418.371 334.029Z" fill="#3F3D56"/>
<path d="M411.983 334.029H414.433C414.638 334.029 414.805 333.862 414.805 333.657V332.486C414.805 332.281 414.638 332.114 414.433 332.114H411.983C411.778 332.114 411.611 332.281 411.611 332.486V333.657C411.611 333.862 411.778 334.029 411.983 334.029Z" fill="#3F3D56"/>
<path d="M405.595 334.029H408.045C408.25 334.029 408.417 333.862 408.417 333.657V332.486C408.417 332.281 408.25 332.114 408.045 332.114H405.595C405.39 332.114 405.223 332.281 405.223 332.486V333.657C405.223 333.862 405.39 334.029 405.595 334.029Z" fill="#3F3D56"/>
<path d="M399.207 334.029H401.657C401.862 334.029 402.029 333.862 402.029 333.657V332.486C402.029 332.281 401.862 332.114 401.657 332.114H399.207C399.002 332.114 398.835 332.281 398.835 332.486V333.657C398.835 333.862 399.002 334.029 399.207 334.029Z" fill="#3F3D56"/>
<path d="M392.819 334.029H395.269C395.474 334.029 395.641 333.862 395.641 333.657V332.486C395.641 332.281 395.474 332.114 395.269 332.114H392.819C392.614 332.114 392.447 332.281 392.447 332.486V333.657C392.447 333.862 392.614 334.029 392.819 334.029Z" fill="#3F3D56"/>
<path d="M386.431 334.029H388.881C389.087 334.029 389.253 333.862 389.253 333.657V332.486C389.253 332.281 389.087 332.114 388.881 332.114H386.431C386.226 332.114 386.059 332.281 386.059 332.486V333.657C386.059 333.862 386.226 334.029 386.431 334.029Z" fill="#3F3D56"/>
<path d="M380.044 334.029H382.493C382.699 334.029 382.865 333.862 382.865 333.657V332.486C382.865 332.281 382.699 332.114 382.493 332.114H380.044C379.838 332.114 379.671 332.281 379.671 332.486V333.657C379.671 333.862 379.838 334.029 380.044 334.029Z" fill="#3F3D56"/>
<path d="M422.843 337.858H447.65C447.856 337.858 448.022 337.692 448.022 337.486V336.316C448.022 336.11 447.856 335.944 447.65 335.944H422.843C422.637 335.944 422.471 336.11 422.471 336.316V337.486C422.471 337.692 422.637 337.858 422.843 337.858Z" fill="#3F3D56"/>
<path d="M396.56 273.32H394.392C393.734 273.32 393.201 273.852 393.201 274.509C393.201 275.166 393.734 275.699 394.392 275.699H396.56C397.218 275.699 397.751 275.166 397.751 274.509C397.751 273.852 397.218 273.32 396.56 273.32Z" fill="white"/>
<path d="M421.361 273.32H419.193C418.535 273.32 418.002 273.852 418.002 274.509C418.002 275.166 418.535 275.699 419.193 275.699H421.361C422.019 275.699 422.552 275.166 422.552 274.509C422.552 273.852 422.019 273.32 421.361 273.32Z" fill="white"/>
<path d="M428.388 273.32H426.219C425.562 273.32 425.029 273.852 425.029 274.509C425.029 275.166 425.562 275.699 426.219 275.699H428.388C429.045 275.699 429.578 275.166 429.578 274.509C429.578 273.852 429.045 273.32 428.388 273.32Z" fill="white"/>
<path d="M414.615 273.122H401.138C400.48 273.122 399.947 273.654 399.947 274.311C399.947 274.968 400.48 275.5 401.138 275.5H414.615C415.273 275.5 415.806 274.968 415.806 274.311C415.806 273.654 415.273 273.122 414.615 273.122Z" fill="white"/>
<path d="M447.683 273.122H434.206C433.548 273.122 433.015 273.654 433.015 274.311C433.015 274.968 433.548 275.5 434.206 275.5H447.683C448.341 275.5 448.874 274.968 448.874 274.311C448.874 273.654 448.341 273.122 447.683 273.122Z" fill="white"/>
<path d="M403.174 278.688H401.005C400.348 278.688 399.815 279.221 399.815 279.878C399.815 280.535 400.348 281.067 401.005 281.067H403.174C403.831 281.067 404.364 280.535 404.364 279.878C404.364 279.221 403.831 278.688 403.174 278.688Z" fill="white"/>
<path d="M427.975 278.688H425.806C425.149 278.688 424.616 279.221 424.616 279.878C424.616 280.535 425.149 281.067 425.806 281.067H427.975C428.632 281.067 429.165 280.535 429.165 279.878C429.165 279.221 428.632 278.688 427.975 278.688Z" fill="white"/>
<path d="M435.001 278.688H432.833C432.176 278.688 431.643 279.221 431.643 279.878C431.643 280.535 432.176 281.067 432.833 281.067H435.001C435.659 281.067 436.192 280.535 436.192 279.878C436.192 279.221 435.659 278.688 435.001 278.688Z" fill="white"/>
<path d="M421.229 278.49H407.751C407.094 278.49 406.561 279.023 406.561 279.68C406.561 280.337 407.094 280.869 407.751 280.869H421.229C421.886 280.869 422.419 280.337 422.419 279.68C422.419 279.023 421.886 278.49 421.229 278.49Z" fill="white"/>
<path d="M454.297 278.49H440.819C440.162 278.49 439.629 279.023 439.629 279.68C439.629 280.337 440.162 280.869 440.819 280.869H454.297C454.954 280.869 455.487 280.337 455.487 279.68C455.487 279.023 454.954 278.49 454.297 278.49Z" fill="white"/>
<path d="M409.787 284.057H407.619C406.961 284.057 406.428 284.59 406.428 285.247C406.428 285.904 406.961 286.436 407.619 286.436H409.787C410.445 286.436 410.978 285.904 410.978 285.247C410.978 284.59 410.445 284.057 409.787 284.057Z" fill="white"/>
<path d="M434.588 284.057H432.42C431.762 284.057 431.229 284.59 431.229 285.247C431.229 285.904 431.762 286.436 432.42 286.436H434.588C435.246 286.436 435.779 285.904 435.779 285.247C435.779 284.59 435.246 284.057 434.588 284.057Z" fill="white"/>
<path d="M441.615 284.057H439.447C438.789 284.057 438.256 284.59 438.256 285.247C438.256 285.904 438.789 286.436 439.447 286.436H441.615C442.272 286.436 442.805 285.904 442.805 285.247C442.805 284.59 442.272 284.057 441.615 284.057Z" fill="white"/>
<path d="M427.842 283.859H414.365C413.707 283.859 413.174 284.392 413.174 285.049C413.174 285.705 413.707 286.238 414.365 286.238H427.842C428.5 286.238 429.033 285.705 429.033 285.049C429.033 284.392 428.5 283.859 427.842 283.859Z" fill="white"/>
<path d="M460.91 283.859H447.433C446.775 283.859 446.242 284.392 446.242 285.049C446.242 285.705 446.775 286.238 447.433 286.238H460.91C461.568 286.238 462.101 285.705 462.101 285.049C462.101 284.392 461.568 283.859 460.91 283.859Z" fill="white"/>
<path d="M416.401 289.426H414.232C413.575 289.426 413.042 289.959 413.042 290.616C413.042 291.273 413.575 291.805 414.232 291.805H416.401C417.058 291.805 417.591 291.273 417.591 290.616C417.591 289.959 417.058 289.426 416.401 289.426Z" fill="white"/>
<path d="M441.202 289.426H439.033C438.376 289.426 437.843 289.959 437.843 290.616C437.843 291.273 438.376 291.805 439.033 291.805H441.202C441.859 291.805 442.392 291.273 442.392 290.616C442.392 289.959 441.859 289.426 441.202 289.426Z" fill="white"/>
<path d="M448.229 289.426H446.06C445.403 289.426 444.87 289.959 444.87 290.616C444.87 291.273 445.403 291.805 446.06 291.805H448.229C448.886 291.805 449.419 291.273 449.419 290.616C449.419 289.959 448.886 289.426 448.229 289.426Z" fill="white"/>
<path d="M434.456 289.228H420.978C420.321 289.228 419.788 289.76 419.788 290.417C419.788 291.074 420.321 291.607 420.978 291.607H434.456C435.113 291.607 435.646 291.074 435.646 290.417C435.646 289.76 435.113 289.228 434.456 289.228Z" fill="white"/>
<path d="M421.361 310.775H419.193C418.535 310.775 418.002 311.307 418.002 311.964C418.002 312.621 418.535 313.154 419.193 313.154H421.361C422.019 313.154 422.552 312.621 422.552 311.964C422.552 311.307 422.019 310.775 421.361 310.775Z" fill="white"/>
<path d="M428.388 310.775H426.219C425.562 310.775 425.029 311.307 425.029 311.964C425.029 312.621 425.562 313.154 426.219 313.154H428.388C429.045 313.154 429.578 312.621 429.578 311.964C429.578 311.307 429.045 310.775 428.388 310.775Z" fill="white"/>
<path d="M447.683 310.973H434.206C433.548 310.973 433.015 311.506 433.015 312.163C433.015 312.819 433.548 313.352 434.206 313.352H447.683C448.341 313.352 448.874 312.819 448.874 312.163C448.874 311.506 448.341 310.973 447.683 310.973Z" fill="white"/>
<path d="M396.56 310.775H394.392C393.734 310.775 393.201 311.307 393.201 311.964C393.201 312.621 393.734 313.154 394.392 313.154H396.56C397.218 313.154 397.751 312.621 397.751 311.964C397.751 311.307 397.218 310.775 396.56 310.775Z" fill="white"/>
<path d="M414.615 310.973H401.138C400.48 310.973 399.947 311.506 399.947 312.163C399.947 312.819 400.48 313.352 401.138 313.352H414.615C415.273 313.352 415.806 312.819 415.806 312.163C415.806 311.506 415.273 310.973 414.615 310.973Z" fill="white"/>
<path d="M403.174 305.406H401.005C400.348 305.406 399.815 305.938 399.815 306.595C399.815 307.252 400.348 307.785 401.005 307.785H403.174C403.831 307.785 404.364 307.252 404.364 306.595C404.364 305.938 403.831 305.406 403.174 305.406Z" fill="white"/>
<path d="M427.975 305.406H425.806C425.149 305.406 424.616 305.938 424.616 306.595C424.616 307.252 425.149 307.785 425.806 307.785H427.975C428.632 307.785 429.165 307.252 429.165 306.595C429.165 305.938 428.632 305.406 427.975 305.406Z" fill="white"/>
<path d="M435.001 305.406H432.833C432.176 305.406 431.643 305.938 431.643 306.595C431.643 307.252 432.176 307.785 432.833 307.785H435.001C435.659 307.785 436.192 307.252 436.192 306.595C436.192 305.938 435.659 305.406 435.001 305.406Z" fill="white"/>
<path d="M421.229 305.604H407.751C407.094 305.604 406.561 306.137 406.561 306.794C406.561 307.451 407.094 307.983 407.751 307.983H421.229C421.886 307.983 422.419 307.451 422.419 306.794C422.419 306.137 421.886 305.604 421.229 305.604Z" fill="white"/>
<path d="M409.787 300.037H407.619C406.961 300.037 406.428 300.57 406.428 301.226C406.428 301.883 406.961 302.416 407.619 302.416H409.787C410.445 302.416 410.978 301.883 410.978 301.226C410.978 300.57 410.445 300.037 409.787 300.037Z" fill="white"/>
<path d="M434.588 300.037H432.42C431.762 300.037 431.229 300.57 431.229 301.226C431.229 301.883 431.762 302.416 432.42 302.416H434.588C435.246 302.416 435.779 301.883 435.779 301.226C435.779 300.57 435.246 300.037 434.588 300.037Z" fill="white"/>
<path d="M441.615 300.037H439.447C438.789 300.037 438.256 300.57 438.256 301.226C438.256 301.883 438.789 302.416 439.447 302.416H441.615C442.272 302.416 442.805 301.883 442.805 301.226C442.805 300.57 442.272 300.037 441.615 300.037Z" fill="white"/>
<path d="M427.842 300.236H414.365C413.707 300.236 413.174 300.768 413.174 301.425C413.174 302.082 413.707 302.614 414.365 302.614H427.842C428.5 302.614 429.033 302.082 429.033 301.425C429.033 300.768 428.5 300.236 427.842 300.236Z" fill="white"/>
<path d="M416.401 294.668H414.232C413.575 294.668 413.042 295.201 413.042 295.858C413.042 296.515 413.575 297.047 414.232 297.047H416.401C417.058 297.047 417.591 296.515 417.591 295.858C417.591 295.201 417.058 294.668 416.401 294.668Z" fill="white"/>
<path d="M441.202 294.668H439.033C438.376 294.668 437.843 295.201 437.843 295.858C437.843 296.515 438.376 297.047 439.033 297.047H441.202C441.859 297.047 442.392 296.515 442.392 295.858C442.392 295.201 441.859 294.668 441.202 294.668Z" fill="white"/>
<path d="M448.229 294.668H446.06C445.403 294.668 444.87 295.201 444.87 295.858C444.87 296.515 445.403 297.047 446.06 297.047H448.229C448.886 297.047 449.419 296.515 449.419 295.858C449.419 295.201 448.886 294.668 448.229 294.668Z" fill="white"/>
<path d="M434.456 294.867H420.978C420.321 294.867 419.788 295.399 419.788 296.056C419.788 296.713 420.321 297.245 420.978 297.245H434.456C435.113 297.245 435.646 296.713 435.646 296.056C435.646 295.399 435.113 294.867 434.456 294.867Z" fill="white"/>
<path d="M385.031 373.695L374.852 357.618L406.805 332.169L419.993 317.57C421.707 315.673 423.888 314.259 426.32 313.469C428.752 312.679 431.349 312.54 433.851 313.066C436.354 313.593 438.674 314.766 440.58 316.47C442.486 318.173 443.912 320.346 444.714 322.772C445.903 326.367 445.647 330.283 444.001 333.693C442.355 337.104 439.447 339.742 435.891 341.051L415.036 348.727L385.031 373.695Z" fill="#FFB6B6"/>
<path d="M146.176 257.125V335.265H200.966V257.125C200.967 256.563 200.787 256.015 200.454 255.563C200.12 255.11 199.65 254.776 199.113 254.611C198.86 254.527 198.594 254.486 198.327 254.489H148.822C148.475 254.488 148.131 254.556 147.81 254.688C147.489 254.82 147.198 255.014 146.952 255.259C146.706 255.504 146.511 255.794 146.378 256.115C146.245 256.435 146.176 256.778 146.176 257.125ZM167.558 283.974C167.572 282.434 168.195 280.961 169.29 279.877C170.386 278.792 171.865 278.184 173.407 278.184C174.949 278.184 176.428 278.792 177.524 279.877C178.619 280.961 179.241 282.434 179.256 283.974V293.041C179.248 294.585 178.628 296.064 177.532 297.153C176.436 298.243 174.953 298.854 173.407 298.854C171.861 298.854 170.378 298.243 169.282 297.153C168.186 296.064 167.566 294.585 167.558 293.041V283.974Z" fill="#2F2E41"/>
<path d="M146.008 332.766V340.301C146.009 340.691 146.165 341.065 146.44 341.342C146.716 341.619 147.089 341.776 147.48 341.779H199.662C200.053 341.777 200.427 341.62 200.703 341.343C200.979 341.066 201.134 340.691 201.134 340.301V332.766H146.008Z" fill="#3F3D56"/>
<path d="M59.9832 139.397V282.069C59.9846 283.887 60.7081 285.631 61.9949 286.916C63.2817 288.202 65.0265 288.925 66.8462 288.926H278.458C280.277 288.925 282.022 288.202 283.309 286.916C284.596 285.631 285.319 283.887 285.321 282.069V139.397C285.316 137.58 284.592 135.839 283.305 134.556C282.019 133.272 280.276 132.55 278.458 132.547H66.8462C65.0281 132.55 63.2849 133.272 61.9985 134.556C60.7122 135.839 59.9875 137.58 59.9832 139.397Z" fill="#3F3D56"/>
<path d="M64.9475 141.172V280.309C64.9492 281.281 65.3362 282.212 66.0237 282.899C66.7112 283.586 67.6432 283.972 68.6154 283.974H276.696C277.668 283.972 278.6 283.586 279.288 282.899C279.975 282.212 280.362 281.281 280.364 280.309V141.172C280.364 140.199 279.978 139.267 279.29 138.578C278.602 137.89 277.67 137.502 276.696 137.5H68.6154C67.642 137.502 66.7091 137.89 66.0215 138.578C65.3338 139.267 64.9476 140.199 64.9475 141.172Z" fill="white"/>
<path d="M103.564 341.268C103.775 341.534 104.045 341.748 104.351 341.894C104.658 342.041 104.993 342.116 105.333 342.114H229.127C229.466 342.114 229.8 342.038 230.106 341.892C230.411 341.747 230.68 341.535 230.894 341.272C231.107 341.009 231.259 340.702 231.339 340.374C231.418 340.045 231.424 339.702 231.354 339.371L229.432 330.251C229.353 329.88 229.181 329.533 228.934 329.245C228.686 328.956 228.37 328.734 228.014 328.598C227.757 328.497 227.482 328.446 227.206 328.446H107.247C106.97 328.446 106.696 328.497 106.439 328.598C106.083 328.734 105.767 328.956 105.519 329.245C105.271 329.533 105.1 329.88 105.02 330.251L103.099 339.371C103.03 339.702 103.036 340.044 103.117 340.372C103.197 340.7 103.35 341.007 103.564 341.268Z" fill="#2F2E41"/>
<path d="M269.943 156.667H75.2429C75.0405 156.662 74.8479 156.579 74.7064 156.434C74.5648 156.289 74.4856 156.095 74.4856 155.893C74.4856 155.691 74.5648 155.497 74.7064 155.352C74.8479 155.207 75.0405 155.124 75.2429 155.119H269.943C270.145 155.124 270.338 155.207 270.48 155.352C270.621 155.497 270.7 155.691 270.7 155.893C270.7 156.095 270.621 156.289 270.48 156.434C270.338 156.579 270.145 156.662 269.943 156.667Z" fill="#3F3D56"/>
<path d="M88.4966 151.169C91.0026 151.169 93.0341 149.094 93.0341 146.535C93.0341 143.975 91.0026 141.9 88.4966 141.9C85.9905 141.9 83.959 143.975 83.959 146.535C83.959 149.094 85.9905 151.169 88.4966 151.169Z" fill="#3F3D56"/>
<path d="M104.172 151.169C106.678 151.169 108.709 149.094 108.709 146.535C108.709 143.975 106.678 141.9 104.172 141.9C101.666 141.9 99.6343 143.975 99.6343 146.535C99.6343 149.094 101.666 151.169 104.172 151.169Z" fill="#3F3D56"/>
<path d="M119.847 151.169C122.353 151.169 124.384 149.094 124.384 146.535C124.384 143.975 122.353 141.9 119.847 141.9C117.341 141.9 115.309 143.975 115.309 146.535C115.309 149.094 117.341 151.169 119.847 151.169Z" fill="#3F3D56"/>
<path d="M260.504 143.046H249.371C249.151 143.052 248.941 143.142 248.787 143.3C248.634 143.457 248.547 143.668 248.547 143.888C248.547 144.108 248.634 144.319 248.787 144.477C248.941 144.634 249.151 144.725 249.371 144.73H260.504C260.725 144.727 260.937 144.637 261.092 144.479C261.248 144.322 261.335 144.11 261.335 143.888C261.335 143.667 261.248 143.455 261.092 143.297C260.937 143.14 260.725 143.05 260.504 143.046Z" fill="#3F3D56"/>
<path d="M260.504 146.208H249.371C249.15 146.213 248.941 146.304 248.787 146.461C248.633 146.619 248.546 146.83 248.546 147.05C248.546 147.27 248.633 147.482 248.787 147.639C248.941 147.796 249.15 147.887 249.371 147.892H260.504C260.726 147.889 260.938 147.799 261.093 147.642C261.249 147.484 261.337 147.272 261.337 147.05C261.337 146.829 261.249 146.616 261.093 146.458C260.938 146.301 260.726 146.211 260.504 146.208Z" fill="#3F3D56"/>
<path d="M260.504 149.37H249.371C249.151 149.375 248.941 149.466 248.787 149.624C248.634 149.781 248.547 149.992 248.547 150.212C248.547 150.432 248.634 150.643 248.787 150.801C248.941 150.958 249.151 151.049 249.371 151.054H260.504C260.725 151.051 260.937 150.961 261.092 150.803C261.248 150.646 261.335 150.433 261.335 150.212C261.335 149.991 261.248 149.778 261.092 149.621C260.937 149.463 260.725 149.373 260.504 149.37Z" fill="#3F3D56"/>
<path d="M528.911 336.073C529.247 337.05 529.884 337.896 530.731 338.489C531.578 339.081 532.591 339.391 533.626 339.372L553.827 338.853C554.869 338.833 555.876 338.476 556.698 337.837C557.52 337.197 558.113 336.309 558.388 335.305L561.247 304.763C562.261 305.222 563.365 305.448 564.479 305.426C565.446 305.402 566.399 305.187 567.283 304.795C568.167 304.403 568.966 303.841 569.632 303.14C570.299 302.44 570.821 301.615 571.169 300.713C571.516 299.811 571.683 298.849 571.659 297.883C571.634 296.916 571.42 295.964 571.027 295.081C570.635 294.197 570.072 293.4 569.371 292.733C568.67 292.067 567.844 291.546 566.941 291.198C566.038 290.851 565.076 290.685 564.109 290.709C563.664 290.707 563.22 290.754 562.785 290.846C562.312 290.335 561.736 289.928 561.096 289.652C560.456 289.376 559.765 289.237 559.068 289.244L527.993 290.046C527.735 290.055 527.479 290.087 527.227 290.141C526.545 290.268 525.899 290.539 525.331 290.937C524.763 291.334 524.287 291.848 523.935 292.445C523.583 293.042 523.363 293.707 523.29 294.395C523.217 295.084 523.292 295.781 523.511 296.438L528.911 336.073ZM561.833 302.689L563.867 295.411C564.099 294.57 564.104 293.683 563.883 292.84C563.982 292.839 564.069 292.793 564.167 292.792C565.562 292.764 566.911 293.289 567.919 294.252C568.927 295.216 569.512 296.54 569.545 297.933C569.577 299.327 569.055 300.676 568.094 301.686C567.132 302.696 565.809 303.283 564.414 303.32C563.512 303.348 562.62 303.13 561.833 302.689Z" fill="#2F2E41"/>
<path d="M527.227 290.141C527.889 293.923 535.332 296.582 544.282 296.12C552.512 295.741 559.241 292.853 560.474 289.431C560.018 289.297 559.544 289.233 559.068 289.244L527.993 290.046C527.735 290.055 527.479 290.087 527.227 290.141Z" fill="#3F3D56"/>
<path d="M545.922 319.289C545.963 319.279 546.002 319.262 546.037 319.239L550.425 316.37C550.478 316.335 550.521 316.288 550.551 316.232C550.581 316.177 550.597 316.114 550.597 316.051C550.597 315.988 550.582 315.926 550.551 315.87C550.521 315.814 550.478 315.767 550.425 315.733L545.865 312.749C545.823 312.721 545.776 312.702 545.727 312.692C545.678 312.683 545.627 312.683 545.578 312.693C545.529 312.703 545.482 312.723 545.44 312.751C545.399 312.779 545.363 312.815 545.336 312.857C545.308 312.899 545.289 312.946 545.28 312.995C545.271 313.045 545.271 313.095 545.282 313.144C545.292 313.193 545.312 313.24 545.34 313.281C545.369 313.323 545.405 313.358 545.447 313.385L549.52 316.051L545.62 318.601C545.544 318.651 545.489 318.725 545.463 318.812C545.438 318.898 545.443 318.991 545.48 319.073C545.516 319.156 545.58 319.223 545.661 319.262C545.742 319.302 545.835 319.312 545.922 319.289H545.922Z" fill="#EA4040"/>
<path d="M538.993 319.609C539.067 319.59 539.133 319.55 539.184 319.493C539.234 319.437 539.267 319.366 539.277 319.291C539.288 319.216 539.275 319.14 539.242 319.071C539.208 319.003 539.155 318.947 539.089 318.909L535.045 316.593L538.954 313.692C538.994 313.662 539.028 313.625 539.054 313.582C539.079 313.539 539.096 313.491 539.104 313.442C539.111 313.392 539.108 313.342 539.096 313.293C539.084 313.245 539.062 313.199 539.032 313.159C539.003 313.119 538.965 313.085 538.922 313.06C538.879 313.034 538.832 313.017 538.782 313.01C538.733 313.002 538.682 313.005 538.634 313.017C538.585 313.029 538.54 313.051 538.499 313.081L534.123 316.328C534.073 316.366 534.032 316.416 534.005 316.473C533.978 316.53 533.966 316.593 533.97 316.657C533.974 316.72 533.993 316.781 534.026 316.835C534.06 316.888 534.106 316.933 534.161 316.964L538.71 319.57C538.796 319.619 538.897 319.633 538.993 319.609Z" fill="#EA4040"/>
<path d="M545.486 321.803C545.523 321.794 545.558 321.779 545.59 321.759C545.633 321.733 545.671 321.699 545.7 321.659C545.73 321.619 545.751 321.573 545.763 321.524C545.775 321.475 545.777 321.425 545.769 321.376C545.762 321.326 545.744 321.279 545.718 321.236L539.499 311.02C539.446 310.934 539.362 310.872 539.263 310.849C539.165 310.825 539.062 310.841 538.975 310.894C538.889 310.946 538.827 311.031 538.803 311.129C538.779 311.227 538.795 311.33 538.848 311.417L545.067 321.633C545.109 321.702 545.173 321.756 545.248 321.787C545.324 321.818 545.407 321.823 545.486 321.803Z" fill="#EA4040"/>
<path d="M195.856 198.723H162.158C160.783 198.723 159.669 199.836 159.669 201.21V204.499C159.669 205.872 160.783 206.986 162.158 206.986H195.856C197.231 206.986 198.346 205.872 198.346 204.499V201.21C198.346 199.836 197.231 198.723 195.856 198.723Z" fill="#EA4040"/>
<path d="M215.499 215.249H142.516C141.141 215.249 140.026 216.363 140.026 217.736V221.026C140.026 222.399 141.141 223.513 142.516 223.513H215.499C216.874 223.513 217.988 222.399 217.988 221.026V217.736C217.988 216.363 216.874 215.249 215.499 215.249Z" fill="#E6E6E6"/>
<path d="M215.499 231.776H142.516C141.141 231.776 140.026 232.889 140.026 234.263V237.552C140.026 238.926 141.141 240.039 142.516 240.039H215.499C216.874 240.039 217.988 238.926 217.988 237.552V234.263C217.988 232.889 216.874 231.776 215.499 231.776Z" fill="#E6E6E6"/>
<path d="M221.686 287.117L221.851 287.638L221.86 287.656L226.836 302.77L232.56 320.188L243.329 352.92L243.433 358.004V358.021L244.234 398.923L242.015 404.469L244.512 413.56C244.512 413.56 243.364 399.817 237.205 407.709C233.717 412.194 229.637 416.783 226.288 421.085C231.168 423.058 236.126 424.843 241.163 426.439C242.25 426.787 243.346 427.117 244.443 427.448C244.677 427.517 244.912 427.587 245.147 427.656C261.843 432.589 279.104 435.361 296.506 435.904C297.411 435.93 298.299 435.948 299.16 435.965C299.464 435.974 299.76 435.983 300.056 435.983C301.03 435.991 301.996 436 302.97 436C304.936 436 306.893 435.971 308.842 435.913C323.264 435.507 337.603 433.569 351.615 430.133C351.519 424.353 351.258 417.6 350.884 410.386C350.71 406.849 346.804 403.016 346.57 399.313C346.404 396.532 349.91 393.916 349.727 391.091C348.544 373.7 347.065 380.376 345.969 368.06C345.856 366.852 345.752 365.696 345.656 364.592C344.952 356.683 344.464 351.738 344.464 351.738L349.145 322.265L356.495 275.992L355.93 275.062L355.295 274.749L316.523 255.575L314.418 250.187C313.804 248.634 312.74 247.301 311.362 246.357C309.984 245.414 308.355 244.904 306.684 244.894L281.144 244.789C279.818 244.783 278.511 245.093 277.329 245.693C276.148 246.294 275.126 247.167 274.35 248.24L267.434 257.809L221.686 287.117Z" fill="#3F3D56"/>
<path d="M249.218 345.636L243.433 358.004L239.484 366.452L232.69 401.992L229.289 405.598L226.375 392.83L195.874 399.596C194.873 394.042 195.606 399.784 194.988 393.691C195.162 393.517 195.345 393.343 195.528 393.17C196.015 392.718 196.424 392.292 196.415 391.883C196.067 370.867 197.111 335.102 205.827 313.434C207.192 309.897 208.992 306.542 211.186 303.448C211.36 303.213 211.525 302.979 211.691 302.744C215.709 297.121 218.25 291.584 221.851 287.647V287.638C221.873 287.62 221.894 287.6 221.912 287.577C221.925 287.571 221.937 287.562 221.947 287.551L246.687 274.445L247.748 304.239L248.505 325.655L249.218 345.636Z" fill="#3F3D56"/>
<path d="M338.427 349.149L345.653 364.596L348.175 369.976L354.967 405.512L358.357 409.11L361.278 396.344L362.65 396.063L387.402 390.941L394.616 413.834C396.242 411.127 396.883 407.942 396.43 404.818C395.977 401.693 394.458 398.821 392.13 396.687C391.637 396.241 391.226 395.808 391.238 395.397C391.649 370.679 390.135 325.544 376.469 306.967C372.129 301.072 369.525 295.2 365.736 291.098C365.724 291.086 365.724 291.075 365.712 291.075L356.492 275.991L355.929 275.065L355.295 274.748L338.427 349.149Z" fill="#3F3D56"/>
<path d="M294.652 237.527C313.418 237.527 328.63 222.328 328.63 203.579C328.63 184.829 313.418 169.63 294.652 169.63C275.886 169.63 260.673 184.829 260.673 203.579C260.673 222.328 275.886 237.527 294.652 237.527Z" fill="#FFB6B6"/>
<path d="M340.578 179.866C340.314 179.584 339.997 179.359 339.645 179.203C339.292 179.048 338.912 178.965 338.526 178.959L339.037 177.542C339.204 177.095 339.249 176.613 339.168 176.143C339.086 175.674 338.882 175.234 338.574 174.87C338.267 174.506 337.868 174.23 337.419 174.07C336.97 173.91 336.486 173.872 336.018 173.961L334.157 174.319L334.332 173.077C334.4 172.615 334.345 172.143 334.174 171.707C334.004 171.272 333.723 170.889 333.359 170.595C332.995 170.302 332.561 170.108 332.099 170.033C331.637 169.957 331.164 170.004 330.725 170.167C330.327 170.324 329.898 170.389 329.47 170.359C329.043 170.329 328.627 170.203 328.255 169.991C327.881 169.786 327.556 169.502 327.303 169.159C327.05 168.815 326.875 168.421 326.791 168.003L326.142 164.879L326.074 164.711C322.917 159.454 316.847 155.63 309.419 154.228C302.808 152.971 296.029 153.611 289.494 154.213C286.901 154.456 283.973 154.731 281.532 156.224C279.458 157.504 277.704 160.064 278.063 162.647C271.619 160.673 264.71 164.612 261.286 169.58C257.23 175.492 256.566 182.898 256.459 188.688C256.17 202.387 258.999 213.595 264.848 222.006C265.275 222.615 265.381 223.888 266.228 224.314L266.052 224.033C266.998 224.505 267.959 225.267 267.6 226.082C266.571 228.429 273.411 233.617 278.231 235.331C287.023 238.463 298.713 238.196 306.933 237.069L307.223 235.126C310.19 234.722 312.279 233.952 312.866 232.749C313.903 231.865 314.788 231.072 315.558 230.341L315.566 230.333C315.581 230.318 315.611 230.295 315.627 230.28C319.34 226.722 320.202 224.695 320.591 221.61C320.965 218.585 320.301 215.515 319.623 212.749C333.913 214.958 313.995 197.542 327.309 194.174C327.462 194.127 327.617 194.089 327.774 194.06C328.163 193.968 328.552 193.877 328.926 193.77C330.727 193.282 332.452 192.546 334.05 191.584C337.772 189.321 338.999 186.319 340.921 182.936C341.198 182.454 341.314 181.897 341.253 181.345C341.191 180.792 340.955 180.274 340.578 179.866Z" fill="#2F2E41"/>
<path d="M414.829 351.566C414.821 352.899 414.806 354.766 414.745 357.075C414.737 357.395 414.729 357.722 414.722 358.057C414.623 362.301 414.524 365.859 414.363 369.813C414.356 370.088 414.348 370.354 414.333 370.629C414.119 376.145 413.784 382.568 413.204 392.739C412.129 411.527 410.253 395.322 408.37 401.912C408.278 402.24 408.179 402.628 408.088 403.085C407.802 404.744 407.321 406.363 406.654 407.908C405.655 408.502 404.626 409.074 403.611 409.645C400.721 411.253 397.785 412.8 394.827 414.27C393.164 415.093 391.494 415.9 389.817 416.678C389.55 416.799 389.29 416.921 389.031 417.036C380.44 421.006 371.586 424.381 362.532 427.138C360.763 427.672 359.001 428.19 357.217 428.67C355.356 429.188 353.496 429.676 351.612 430.133C337.6 433.57 323.262 435.508 308.84 435.915C306.895 435.976 304.936 435.999 302.968 435.999C301.992 435.999 301.031 435.992 300.055 435.984C299.758 435.984 299.46 435.976 299.163 435.969C298.301 435.946 297.409 435.931 296.509 435.908C279.107 435.365 261.846 432.592 245.151 427.657L244.442 427.451C243.343 427.116 242.253 426.788 241.163 426.437C236.13 424.845 231.17 423.062 226.285 421.089C222.556 419.588 218.87 417.978 215.228 416.259C215.194 416.25 215.163 416.234 215.136 416.213C214.374 415.862 213.603 415.497 212.841 415.123C212.742 415.07 212.635 415.017 212.528 414.963C209.684 413.577 206.87 412.124 204.087 410.605C201.746 405.234 198.451 404.205 196.408 399.482C195.813 398.078 195.383 396.611 195.127 395.108C195.127 395.093 195.119 395.078 195.119 395.055C195.332 397.889 194.211 390.027 195.111 395.025C195.104 394.933 195.096 394.834 195.088 394.72C195.066 394.446 195.035 394.11 194.989 393.691C192.374 368.175 192.541 338.995 191.405 314.949C191.329 313.395 191.25 311.907 191.169 310.485C191.146 310.012 191.116 309.548 191.085 309.091C191.138 308.953 191.199 308.809 191.268 308.671C191.283 308.632 191.3 308.594 191.321 308.557C191.344 308.51 191.369 308.464 191.398 308.42C191.413 308.397 191.436 308.367 191.451 308.344C191.462 308.318 191.475 308.292 191.489 308.268C191.558 308.161 191.634 308.047 191.718 307.94C191.756 307.894 191.787 307.856 191.825 307.818C191.851 307.779 191.882 307.743 191.916 307.711C191.94 307.675 191.968 307.642 192 307.612C192.031 307.582 192.061 307.544 192.099 307.506C192.115 307.482 192.136 307.461 192.16 307.445C192.22 307.376 192.287 307.312 192.358 307.254C192.631 307.004 192.921 306.775 193.228 306.569C193.334 306.5 193.449 306.432 193.556 306.355C194.324 305.896 195.133 305.508 195.973 305.197C196.263 305.091 196.553 304.992 196.865 304.885C196.98 304.854 197.086 304.816 197.201 304.778C197.368 304.725 197.536 304.672 197.712 304.633C198.581 304.374 199.519 304.153 200.533 303.948C200.655 303.925 200.785 303.902 200.914 303.872C201.097 303.833 201.288 303.803 201.479 303.772C201.738 303.727 202.005 303.681 202.272 303.635C204.537 303.277 207.106 303.011 209.943 302.835C210.21 302.82 210.477 302.805 210.744 302.79C211.056 302.774 211.369 302.759 211.689 302.744C211.956 302.729 212.231 302.721 212.505 302.713C212.772 302.698 213.047 302.691 213.329 302.683C214.099 302.66 214.892 302.637 215.701 302.622C218.003 302.576 220.428 302.592 222.975 302.645C224.157 302.675 225.362 302.706 226.598 302.759C226.681 302.759 226.758 302.767 226.834 302.767C227.909 302.805 228.992 302.851 230.105 302.912C230.883 302.95 231.669 302.988 232.454 303.033C233.194 303.079 233.941 303.125 234.696 303.178C235.283 303.209 235.87 303.254 236.465 303.293C236.968 303.331 237.472 303.369 237.975 303.399L238.661 303.445C239.035 303.475 239.409 303.498 239.79 303.536C240.629 303.605 241.467 303.673 242.322 303.742C243.168 303.818 244.03 303.894 244.891 303.971C245.753 304.047 246.622 304.131 247.492 304.214C247.583 304.222 247.667 304.23 247.751 304.237C248.544 304.321 249.337 304.397 250.138 304.481C250.321 304.496 250.511 304.512 250.694 304.534C251.458 304.611 252.236 304.701 253.007 304.783C253.243 304.808 253.478 304.833 253.715 304.859C254.319 304.924 254.914 304.981 255.521 305.052C256.322 305.144 257.138 305.228 257.931 305.334C258.549 305.403 259.167 305.472 259.784 305.548C260.753 305.662 261.736 305.784 262.72 305.913C263.094 305.959 263.467 306.005 263.841 306.058C266.647 306.409 269.484 306.797 272.366 307.201C276.736 307.818 281.174 308.489 285.643 309.212C290.119 309.936 294.621 310.701 299.148 311.506C300.292 311.711 301.435 311.917 302.587 312.13C303.105 312.229 303.624 312.328 304.142 312.428C305.027 312.588 305.912 312.755 306.796 312.923C307.681 313.09 308.565 313.258 309.45 313.433C310.502 313.639 311.562 313.845 312.615 314.05C319.546 315.422 326.44 316.885 333.166 318.416C334.271 318.667 335.377 318.927 336.475 319.178C338.671 319.688 340.847 320.207 343.003 320.732C343.598 320.869 344.185 321.014 344.772 321.159C346.236 321.525 347.7 321.89 349.141 322.264L349.393 322.332C350.453 322.591 351.49 322.858 352.527 323.132C354.975 323.772 357.382 324.42 359.749 325.075C361.319 325.509 362.873 325.949 364.408 326.393C366.703 327.056 368.953 327.726 371.141 328.405C371.683 328.572 372.224 328.74 372.758 328.9C374.359 329.395 375.938 329.898 377.471 330.401C378.691 330.797 379.88 331.201 381.055 331.604C382.229 332.008 383.38 332.412 384.509 332.816C385.233 333.075 385.95 333.349 386.667 333.608C387.697 333.989 388.711 334.37 389.702 334.751C390.007 334.865 390.305 334.987 390.602 335.102C390.793 335.185 390.976 335.254 391.159 335.33C391.517 335.475 391.883 335.612 392.234 335.757C392.592 335.894 392.943 336.039 393.294 336.191C393.637 336.328 393.988 336.473 394.323 336.618C394.666 336.755 395.002 336.9 395.337 337.052C395.62 337.166 395.894 337.288 396.161 337.41C396.702 337.646 397.244 337.882 397.77 338.126C398.029 338.248 398.289 338.362 398.548 338.484L399.143 338.759C399.227 338.804 399.31 338.842 399.394 338.881C399.585 338.972 399.783 339.071 399.974 339.162C400.416 339.368 400.851 339.589 401.278 339.795C401.85 340.084 402.406 340.374 402.94 340.656C403.482 340.945 404.008 341.235 404.511 341.517C404.595 341.562 404.671 341.608 404.755 341.654C404.869 341.715 404.984 341.783 405.098 341.844C405.487 342.065 405.861 342.294 406.234 342.515C406.967 342.964 407.66 343.406 408.309 343.848C408.453 343.947 408.591 344.046 408.736 344.138C409.216 344.48 409.674 344.816 410.101 345.159C410.101 345.166 410.101 345.166 410.108 345.166C410.253 345.273 410.39 345.387 410.528 345.494C410.642 345.6 410.764 345.692 410.878 345.799C411.275 346.141 411.641 346.469 411.977 346.804C412.089 346.908 412.196 347.017 412.297 347.132C412.341 347.169 412.382 347.209 412.419 347.254C412.571 347.406 412.709 347.558 412.838 347.711C412.858 347.732 412.876 347.755 412.892 347.779C413.075 347.993 413.242 348.206 413.403 348.419C413.479 348.526 413.563 348.633 413.631 348.739C413.723 348.869 413.814 349.006 413.891 349.136C413.959 349.242 414.02 349.357 414.081 349.463C414.243 349.738 414.381 350.026 414.493 350.324C414.579 350.526 414.648 350.735 414.699 350.949C414.757 351.151 414.8 351.358 414.829 351.566Z" fill="#2F2E41"/>
<path opacity="0.2" d="M414.828 351.566C414.821 352.899 414.806 354.766 414.745 357.075C414.737 357.395 414.722 357.722 414.714 358.057C414.638 361.295 414.523 365.295 414.363 369.813C414.356 370.088 414.348 370.354 414.333 370.629C414.119 376.145 413.784 382.568 413.204 392.739C412.129 411.527 410.253 395.322 408.37 401.912C403.138 398.697 397.404 395.329 391.273 391.87C390.167 391.246 389.051 390.618 387.925 389.988C375.663 383.154 361.968 375.992 347.67 368.899C347.105 368.617 346.533 368.335 345.969 368.061C313.217 351.886 277.468 336.153 248.506 325.654C242.916 323.627 237.578 321.799 232.561 320.191C221.991 316.816 212.856 314.454 205.825 313.433C198.505 312.367 193.449 312.748 191.405 314.949C191.329 313.395 191.25 311.907 191.169 310.485C191.138 310.012 191.108 309.548 191.077 309.09C191.124 308.965 191.185 308.845 191.245 308.725C191.253 308.707 191.259 308.689 191.268 308.671C191.282 308.632 191.3 308.594 191.321 308.557C191.344 308.51 191.369 308.464 191.397 308.42C191.422 308.366 191.453 308.315 191.489 308.268C191.558 308.161 191.634 308.047 191.718 307.94C191.779 307.86 191.846 307.784 191.916 307.711C191.939 307.675 191.968 307.641 192 307.612C192.03 307.582 192.061 307.544 192.099 307.506C192.115 307.482 192.136 307.461 192.16 307.445C192.22 307.376 192.287 307.312 192.358 307.254C192.63 307.004 192.921 306.775 193.228 306.569C193.334 306.5 193.449 306.431 193.555 306.355C194.324 305.896 195.133 305.508 195.973 305.197C196.263 305.091 196.552 304.991 196.865 304.885C196.979 304.854 197.086 304.816 197.201 304.778C197.368 304.725 197.536 304.672 197.711 304.633C198.581 304.374 199.519 304.153 200.533 303.948C200.838 303.887 201.158 303.826 201.479 303.772C201.738 303.727 202.005 303.681 202.272 303.635C204.536 303.277 207.106 303.011 209.943 302.835C210.21 302.82 210.477 302.805 210.744 302.79C211.056 302.774 211.369 302.759 211.689 302.744C211.956 302.729 212.231 302.721 212.505 302.713C212.772 302.698 213.047 302.691 213.329 302.683C214.099 302.66 214.892 302.637 215.7 302.622C218.003 302.584 220.428 302.599 222.975 302.652C224.157 302.675 225.362 302.713 226.597 302.767C226.674 302.767 226.757 302.774 226.834 302.774C227.909 302.805 228.999 302.858 230.105 302.912C230.883 302.95 231.668 302.988 232.454 303.033C233.193 303.079 233.941 303.125 234.696 303.178C235.283 303.209 235.87 303.254 236.465 303.292C236.968 303.331 237.471 303.369 237.975 303.399C238.577 303.445 239.18 303.491 239.79 303.536C240.628 303.605 241.467 303.673 242.321 303.742C243.168 303.818 244.03 303.894 244.891 303.971C245.753 304.047 246.622 304.131 247.492 304.214C247.583 304.222 247.667 304.23 247.751 304.237C248.544 304.321 249.337 304.397 250.138 304.481C254.576 304.931 259.144 305.456 263.841 306.058C266.647 306.416 269.489 306.8 272.366 307.209C276.736 307.826 281.174 308.496 285.643 309.212C290.119 309.936 294.621 310.701 299.148 311.506C300.291 311.711 301.435 311.917 302.587 312.13C303.99 312.389 305.393 312.654 306.796 312.923C307.681 313.09 308.565 313.258 309.45 313.433C310.502 313.639 311.562 313.845 312.614 314.05C319.546 315.422 326.44 316.885 333.166 318.416C334.271 318.667 335.377 318.927 336.475 319.178C338.671 319.688 340.847 320.206 343.003 320.732C343.597 320.877 344.185 321.022 344.772 321.166C346.243 321.532 347.7 321.898 349.141 322.264V322.271C349.225 322.286 349.309 322.309 349.393 322.332C350.445 322.599 351.49 322.866 352.527 323.14C354.975 323.78 357.382 324.425 359.749 325.075C361.319 325.517 362.875 325.951 364.408 326.393C366.703 327.064 368.953 327.734 371.141 328.404C371.683 328.572 372.224 328.74 372.758 328.9C374.359 329.403 375.93 329.903 377.47 330.401C378.691 330.797 379.88 331.201 381.055 331.604C382.229 332.008 383.38 332.412 384.509 332.816C385.241 333.075 385.958 333.342 386.667 333.601C387.704 333.982 388.711 334.363 389.702 334.751C390.007 334.865 390.304 334.987 390.602 335.102C391.158 335.315 391.7 335.536 392.234 335.757C392.592 335.894 392.943 336.039 393.294 336.191C393.637 336.328 393.988 336.473 394.323 336.618C394.666 336.755 395.002 336.9 395.337 337.052C395.619 337.166 395.894 337.288 396.161 337.41C396.702 337.646 397.244 337.882 397.77 338.126C398.029 338.248 398.288 338.362 398.548 338.484L399.143 338.759C399.226 338.804 399.31 338.842 399.394 338.881C400.042 339.185 400.668 339.49 401.278 339.795C401.85 340.084 402.406 340.374 402.94 340.656C403.573 340.991 404.175 341.319 404.755 341.654C404.869 341.715 404.984 341.783 405.098 341.844C405.487 342.065 405.861 342.294 406.234 342.515C406.966 342.964 407.66 343.406 408.309 343.848C408.949 344.29 409.544 344.724 410.101 345.159C410.101 345.166 410.101 345.166 410.108 345.166C410.375 345.379 410.634 345.593 410.878 345.798C411.275 346.141 411.641 346.469 411.976 346.804C412.089 346.908 412.196 347.017 412.297 347.132C412.341 347.169 412.382 347.209 412.419 347.254C412.579 347.429 412.739 347.604 412.892 347.779C413.075 347.993 413.242 348.206 413.402 348.419C413.479 348.526 413.563 348.633 413.631 348.739C413.723 348.869 413.814 349.006 413.891 349.136C413.959 349.242 414.02 349.357 414.081 349.463C414.243 349.738 414.381 350.026 414.493 350.324C414.576 350.527 414.645 350.736 414.699 350.949C414.757 351.151 414.8 351.358 414.828 351.566Z" fill="black"/>
</g>
<defs>
<clipPath id="clip0_184_4">
<rect width="600" height="436" fill="white"/>
</clipPath>
</defs>
</svg>
