<svg width="48" height="48" viewBox="0 0 48 48" fill="none" xmlns="http://www.w3.org/2000/svg">
<path d="M7.38188 12.584C10.1879 9.542 14.4339 8 19.9999 8H21.9999V13.638L20.3919 13.96C17.6519 14.508 15.7459 15.586 14.7259 17.168C14.1937 18.0203 13.8918 18.9961 13.8499 20H19.9999C20.5303 20 21.039 20.2107 21.4141 20.5858C21.7892 20.9609 21.9999 21.4696 21.9999 22V36C21.9999 38.206 20.2059 40 17.9999 40H5.99988C5.46945 40 4.96074 39.7893 4.58567 39.4142C4.21059 39.0391 3.99988 38.5304 3.99988 38V28L4.00588 22.162C3.98788 21.94 3.60788 16.68 7.38188 12.584ZM39.9999 40H27.9999C27.4694 40 26.9607 39.7893 26.5857 39.4142C26.2106 39.0391 25.9999 38.5304 25.9999 38V28L26.0059 22.162C25.9879 21.94 25.6079 16.68 29.3819 12.584C32.1879 9.542 36.4339 8 41.9999 8H43.9999V13.638L42.3919 13.96C39.6519 14.508 37.7459 15.586 36.7259 17.168C36.1937 18.0203 35.8918 18.9961 35.8499 20H41.9999C42.5303 20 43.039 20.2107 43.4141 20.5858C43.7892 20.9609 43.9999 21.4696 43.9999 22V36C43.9999 38.206 42.2059 40 39.9999 40Z" fill="#0D0E14" fill-opacity="0.2"/>
</svg>
