<svg width="48" height="48" viewBox="0 0 48 48" fill="none" xmlns="http://www.w3.org/2000/svg">
<path d="M40.6181 35.416C37.8121 38.458 33.5661 40 28.0001 40L26.0001 40L26.0001 34.362L27.6081 34.04C30.3481 33.492 32.2541 32.414 33.2741 30.832C33.8063 29.9797 34.1082 29.0039 34.1501 28L28.0001 28C27.4697 28 26.961 27.7893 26.5859 27.4142C26.2108 27.0391 26.0001 26.5304 26.0001 26L26.0001 12C26.0001 9.794 27.7941 8 30.0001 8L42.0001 8C42.5305 8 43.0393 8.21071 43.4143 8.58578C43.7894 8.96086 44.0001 9.46957 44.0001 10L44.0001 20L43.9941 25.838C44.0121 26.06 44.3921 31.32 40.6181 35.416ZM8.00012 8L20.0001 8C20.5306 8 21.0393 8.21071 21.4143 8.58579C21.7894 8.96086 22.0001 9.46957 22.0001 10L22.0001 20L21.9941 25.838C22.0121 26.06 22.3921 31.32 18.6181 35.416C15.8121 38.458 11.5661 40 6.00012 40L4.00012 40L4.00012 34.362L5.60812 34.04C8.34812 33.492 10.2541 32.414 11.2741 30.832C11.8063 29.9797 12.1082 29.0039 12.1501 28L6.00012 28C5.46968 28 4.96097 27.7893 4.5859 27.4142C4.21083 27.0391 4.00012 26.5304 4.00012 26L4.00012 12C4.00012 9.794 5.79411 8 8.00012 8Z" fill="#0D0E14" fill-opacity="0.2"/>
</svg>
